<svg xmlns="http://www.w3.org/2000/svg" width="1200" height="800" viewBox="0 0 1200 800" role="img" aria-label="Music Room Hunt hidden objects scene">
  <defs>
    <filter id="hidden-shadow" x="-20%" y="-20%" width="140%" height="140%">
      <feDropShadow dx="0" dy="8" stdDeviation="5" flood-color="#143c56" flood-opacity="0.16"/>
    </filter>
    <pattern id="scene-stripes-hidden_music_room_001" width="48" height="48" patternUnits="userSpaceOnUse" patternTransform="rotate(45)">
      <path d="M 0 0 L 0 48" stroke="#143c56" stroke-opacity="0.08" stroke-width="4"/>
    </pattern>
  </defs>
  <rect width="1200" height="800" fill="#f1e8ff"/>
  <circle cx="1010" cy="110" r="68" fill="#ffd45a" opacity="0.8"/>
  <path d="M0 560 C160 500 280 612 440 552 C620 484 750 624 930 548 C1040 502 1110 512 1200 548 V800 H0Z" fill="#c5f2ff"/>
  <rect y="560" width="1200" height="240" fill="url(#scene-stripes-hidden_music_room_001)"/>
  <rect x="56" y="72" width="214" height="164" rx="24" fill="#ffffff" stroke="#143c56" stroke-width="8" opacity="0.88"/>
  <path d="M86 196 C130 148 170 160 214 112 C238 92 258 100 270 118 V236 H86Z" fill="#fff0a5" opacity="0.9"/>
  <rect x="338" y="468" width="524" height="72" rx="36" fill="#ffffff" stroke="#143c56" stroke-width="8" opacity="0.9"/>
  <text x="600" y="516" text-anchor="middle" font-size="38" font-weight="900" font-family="Inter, Arial, sans-serif" fill="#143c56">Music Room Hunt</text>
  <path d="M920 386 C970 330 1068 342 1118 404 C1052 410 982 424 920 386Z" fill="#5ac878" opacity="0.42"/>
  <g filter="url(#hidden-shadow)"><rect x="156" y="156" width="120" height="96" rx="20" fill="#ff9f45" stroke="#143c56" stroke-width="6" stroke-linejoin="round" stroke-linecap="round"/><circle cx="216" cy="204" r="15.600000000000001" fill="#4aa3ff" stroke="#143c56" stroke-width="6" stroke-linejoin="round" stroke-linecap="round"/></g>
    <path d="M576,130.8 L588.6961614495174,162.52523292150113 L622.7919806017215,164.7963638767526 L596.5428207519753,186.67476707849886 L604.9190344127896,219.8036361232474 L576,201.6 L547.0809655872104,219.8036361232474 L555.4571792480247,186.67476707849886 L529.2080193982785,164.7963638767526 L563.3038385504826,162.52523292150113 Z" fill="#f45d5d" stroke="#143c56" stroke-width="6" stroke-linejoin="round" stroke-linecap="round" filter="url(#hidden-shadow)"/>
    <g filter="url(#hidden-shadow)"><rect x="884" y="168" width="128" height="104" rx="12" fill="#4aa3ff" stroke="#143c56" stroke-width="6" stroke-linejoin="round" stroke-linecap="round"/><path d="M948 172 V268" stroke="#ffffff" stroke-width="8"/></g>
    <g filter="url(#hidden-shadow)"><ellipse cx="294" cy="500" rx="35.2" ry="43.52" fill="#5ac878" stroke="#143c56" stroke-width="6" stroke-linejoin="round" stroke-linecap="round"/><path d="M294 546 C274 584 322 588 296 620" fill="none" stroke="#143c56" stroke-width="6" stroke-linejoin="round" stroke-linecap="round"/></g>
    <g filter="url(#hidden-shadow)"><rect x="588" y="467.99999999999994" width="132" height="104" rx="20" fill="#ffd45a" stroke="#143c56" stroke-width="6" stroke-linejoin="round" stroke-linecap="round"/><circle cx="654" cy="520" r="16.64" fill="#ff9f45" stroke="#143c56" stroke-width="6" stroke-linejoin="round" stroke-linecap="round"/></g>
    <g filter="url(#hidden-shadow)"><rect x="936" y="540" width="120" height="104" rx="20" fill="#a982ff" stroke="#143c56" stroke-width="6" stroke-linejoin="round" stroke-linecap="round"/><circle cx="996" cy="592" r="16.64" fill="#f45d5d" stroke="#143c56" stroke-width="6" stroke-linejoin="round" stroke-linecap="round"/></g>
</svg>
