<svg xmlns="http://www.w3.org/2000/svg" width="1200" height="800" viewBox="0 0 1200 800" role="img" aria-label="Camping Hunt hidden objects scene">
  <defs>
    <filter id="hidden-shadow" x="-20%" y="-20%" width="140%" height="140%">
      <feDropShadow dx="0" dy="8" stdDeviation="5" flood-color="#143c56" flood-opacity="0.16"/>
    </filter>
    <pattern id="scene-stripes-hidden_camping_001" width="48" height="48" patternUnits="userSpaceOnUse" patternTransform="rotate(45)">
      <path d="M 0 0 L 0 48" stroke="#143c56" stroke-opacity="0.08" stroke-width="4"/>
    </pattern>
  </defs>
  <rect width="1200" height="800" fill="#263b5d"/>
  <circle cx="1010" cy="110" r="68" fill="#ffffff" opacity="0.8"/>
  <path d="M0 560 C160 500 280 612 440 552 C620 484 750 624 930 548 C1040 502 1110 512 1200 548 V800 H0Z" fill="#294f3b"/>
  <rect y="560" width="1200" height="240" fill="url(#scene-stripes-hidden_camping_001)"/>
  <rect x="56" y="72" width="214" height="164" rx="24" fill="#ffffff" stroke="#143c56" stroke-width="8" opacity="0.88"/>
  <path d="M86 196 C130 148 170 160 214 112 C238 92 258 100 270 118 V236 H86Z" fill="#ffd45a" opacity="0.9"/>
  <rect x="338" y="468" width="524" height="72" rx="36" fill="#ffffff" stroke="#143c56" stroke-width="8" opacity="0.9"/>
  <text x="600" y="516" text-anchor="middle" font-size="38" font-weight="900" font-family="Inter, Arial, sans-serif" fill="#143c56">Camping Hunt</text>
  <circle cx="120" cy="336" r="8" fill="#ffd45a"/><circle cx="1090" cy="290" r="7" fill="#ffffff"/><circle cx="980" cy="210" r="5" fill="#ffffff"/>
  <g filter="url(#hidden-shadow)"><rect x="156" y="156" width="120" height="96" rx="20" fill="#a982ff" stroke="#143c56" stroke-width="6" stroke-linejoin="round" stroke-linecap="round"/><circle cx="216" cy="204" r="15.600000000000001" fill="#f45d5d" stroke="#143c56" stroke-width="6" stroke-linejoin="round" stroke-linecap="round"/></g>
    <path d="M576,130.8 L588.6961614495174,162.52523292150113 L622.7919806017215,164.7963638767526 L596.5428207519753,186.67476707849886 L604.9190344127896,219.8036361232474 L576,201.6 L547.0809655872104,219.8036361232474 L555.4571792480247,186.67476707849886 L529.2080193982785,164.7963638767526 L563.3038385504826,162.52523292150113 Z" fill="#ff9f45" stroke="#143c56" stroke-width="6" stroke-linejoin="round" stroke-linecap="round" filter="url(#hidden-shadow)"/>
    <path d="M980 162 C920 178 890 244 930 286 C874 266 860 178 980 162Z" fill="#f45d5d" stroke="#143c56" stroke-width="6" stroke-linejoin="round" stroke-linecap="round" filter="url(#hidden-shadow)"/>
    <g filter="url(#hidden-shadow)"><path d="M240 476.00000000000006 H344 L330 562 H258Z" fill="#4aa3ff" stroke="#143c56" stroke-width="6" stroke-linejoin="round" stroke-linecap="round"/><path d="M342 492.00000000000006 C388 492.00000000000006 382 544 344 542" fill="none" stroke="#143c56" stroke-width="6" stroke-linejoin="round" stroke-linecap="round"/></g>
    <g filter="url(#hidden-shadow)"><ellipse cx="646" cy="520" rx="40.96" ry="26.88" fill="#5ac878" stroke="#143c56" stroke-width="6" stroke-linejoin="round" stroke-linecap="round"/><path d="M694 520 L730 486 L730 554Z" fill="#a982ff" stroke="#143c56" stroke-width="6" stroke-linejoin="round" stroke-linecap="round"/><circle cx="612" cy="512" r="5" fill="#143c56"/></g>
    <g filter="url(#hidden-shadow)"><path d="M958 542 V648" stroke="#143c56" stroke-width="6" stroke-linejoin="round" stroke-linecap="round"/><path d="M964 546 H1060 L1034 594 H964Z" fill="#ffd45a" stroke="#143c56" stroke-width="6" stroke-linejoin="round" stroke-linecap="round"/></g>
</svg>
