<svg xmlns="http://www.w3.org/2000/svg" width="1200" height="800" viewBox="0 0 1200 800" role="img" aria-label="Market Hunt hidden objects scene">
  <defs>
    <filter id="hidden-shadow" x="-20%" y="-20%" width="140%" height="140%">
      <feDropShadow dx="0" dy="8" stdDeviation="5" flood-color="#143c56" flood-opacity="0.16"/>
    </filter>
    <pattern id="scene-stripes-hidden_market_001" width="48" height="48" patternUnits="userSpaceOnUse" patternTransform="rotate(45)">
      <path d="M 0 0 L 0 48" stroke="#143c56" stroke-opacity="0.08" stroke-width="4"/>
    </pattern>
  </defs>
  <rect width="1200" height="800" fill="#fff4d7"/>
  <circle cx="1010" cy="110" r="68" fill="#ffd45a" opacity="0.8"/>
  <path d="M0 560 C160 500 280 612 440 552 C620 484 750 624 930 548 C1040 502 1110 512 1200 548 V800 H0Z" fill="#dff7f2"/>
  <rect y="560" width="1200" height="240" fill="url(#scene-stripes-hidden_market_001)"/>
  <rect x="56" y="72" width="214" height="164" rx="24" fill="#ffffff" stroke="#143c56" stroke-width="8" opacity="0.88"/>
  <path d="M86 196 C130 148 170 160 214 112 C238 92 258 100 270 118 V236 H86Z" fill="#ffe1e5" opacity="0.9"/>
  <rect x="338" y="468" width="524" height="72" rx="36" fill="#ffffff" stroke="#143c56" stroke-width="8" opacity="0.9"/>
  <text x="600" y="516" text-anchor="middle" font-size="38" font-weight="900" font-family="Inter, Arial, sans-serif" fill="#143c56">Market Hunt</text>
  <path d="M920 386 C970 330 1068 342 1118 404 C1052 410 982 424 920 386Z" fill="#5ac878" opacity="0.42"/>
  <g filter="url(#hidden-shadow)"><circle cx="216" cy="212" r="37.2" fill="#f45d5d" stroke="#143c56" stroke-width="6" stroke-linejoin="round" stroke-linecap="round"/><path d="M218 162 C240 134 278 150 262 180 C240 182 226 176 218 162Z" fill="#5ac878" stroke="#143c56" stroke-width="6" stroke-linejoin="round" stroke-linecap="round"/></g>
    <path d="M518 228 C514 136 576 98 634 228Z" fill="#4aa3ff" stroke="#143c56" stroke-width="6" stroke-linejoin="round" stroke-linecap="round" filter="url(#hidden-shadow)"/>
    <path d="M890 268 C886 176 948 138 1006 268Z" fill="#5ac878" stroke="#143c56" stroke-width="6" stroke-linejoin="round" stroke-linecap="round" filter="url(#hidden-shadow)"/>
    <g filter="url(#hidden-shadow)"><rect x="228" y="460.00000000000006" width="132" height="104" rx="20" fill="#ffd45a" stroke="#143c56" stroke-width="6" stroke-linejoin="round" stroke-linecap="round"/><circle cx="294" cy="512" r="16.64" fill="#ff9f45" stroke="#143c56" stroke-width="6" stroke-linejoin="round" stroke-linecap="round"/></g>
    <g filter="url(#hidden-shadow)"><path d="M600 483.99999999999994 H704 L690 570 H618Z" fill="#a982ff" stroke="#143c56" stroke-width="6" stroke-linejoin="round" stroke-linecap="round"/><path d="M702 499.99999999999994 C748 499.99999999999994 742 552 704 550" fill="none" stroke="#143c56" stroke-width="6" stroke-linejoin="round" stroke-linecap="round"/></g>
    <g filter="url(#hidden-shadow)"><path d="M996 610 V652" stroke="#34895e" stroke-width="9"/><circle cx="996" cy="592" r="18" fill="#4aa3ff" stroke="#143c56" stroke-width="6" stroke-linejoin="round" stroke-linecap="round"/><ellipse cx="996" cy="592" rx="18" ry="34" fill="#ff9f45" transform="rotate(0 996 592)" stroke="#143c56" stroke-width="6" stroke-linejoin="round" stroke-linecap="round"/><ellipse cx="996" cy="592" rx="18" ry="34" fill="#ff9f45" transform="rotate(72 996 592)" stroke="#143c56" stroke-width="6" stroke-linejoin="round" stroke-linecap="round"/><ellipse cx="996" cy="592" rx="18" ry="34" fill="#ff9f45" transform="rotate(144 996 592)" stroke="#143c56" stroke-width="6" stroke-linejoin="round" stroke-linecap="round"/><ellipse cx="996" cy="592" rx="18" ry="34" fill="#ff9f45" transform="rotate(216 996 592)" stroke="#143c56" stroke-width="6" stroke-linejoin="round" stroke-linecap="round"/><ellipse cx="996" cy="592" rx="18" ry="34" fill="#ff9f45" transform="rotate(288 996 592)" stroke="#143c56" stroke-width="6" stroke-linejoin="round" stroke-linecap="round"/></g>
</svg>
