<svg xmlns="http://www.w3.org/2000/svg" width="1200" height="800" viewBox="0 0 1200 800" role="img" aria-label="Toy Room Hunt hidden objects scene">
  <defs>
    <filter id="hidden-shadow" x="-20%" y="-20%" width="140%" height="140%">
      <feDropShadow dx="0" dy="8" stdDeviation="5" flood-color="#143c56" flood-opacity="0.16"/>
    </filter>
    <pattern id="scene-stripes-hidden_toy_room_001" width="48" height="48" patternUnits="userSpaceOnUse" patternTransform="rotate(45)">
      <path d="M 0 0 L 0 48" stroke="#143c56" stroke-opacity="0.08" stroke-width="4"/>
    </pattern>
  </defs>
  <rect width="1200" height="800" fill="#fff4d7"/>
  <circle cx="1010" cy="110" r="68" fill="#ffd45a" opacity="0.8"/>
  <path d="M0 560 C160 500 280 612 440 552 C620 484 750 624 930 548 C1040 502 1110 512 1200 548 V800 H0Z" fill="#dff7f2"/>
  <rect y="560" width="1200" height="240" fill="url(#scene-stripes-hidden_toy_room_001)"/>
  <rect x="56" y="72" width="214" height="164" rx="24" fill="#ffffff" stroke="#143c56" stroke-width="8" opacity="0.88"/>
  <path d="M86 196 C130 148 170 160 214 112 C238 92 258 100 270 118 V236 H86Z" fill="#c5f2ff" opacity="0.9"/>
  <rect x="338" y="468" width="524" height="72" rx="36" fill="#ffffff" stroke="#143c56" stroke-width="8" opacity="0.9"/>
  <text x="600" y="516" text-anchor="middle" font-size="38" font-weight="900" font-family="Inter, Arial, sans-serif" fill="#143c56">Toy Room Hunt</text>
  <path d="M920 386 C970 330 1068 342 1118 404 C1052 410 982 424 920 386Z" fill="#5ac878" opacity="0.42"/>
  <g filter="url(#hidden-shadow)"><rect x="156" y="156" width="120" height="96" rx="20" fill="#ffd45a" stroke="#143c56" stroke-width="6" stroke-linejoin="round" stroke-linecap="round"/><circle cx="216" cy="204" r="15.600000000000001" fill="#ff9f45" stroke="#143c56" stroke-width="6" stroke-linejoin="round" stroke-linecap="round"/></g>
    <g filter="url(#hidden-shadow)"><rect x="512" y="150" width="128" height="64" rx="16" fill="#a982ff" stroke="#143c56" stroke-width="6" stroke-linejoin="round" stroke-linecap="round"/><rect x="538" y="108" width="72" height="44" rx="10" fill="#f45d5d" stroke="#143c56" stroke-width="6" stroke-linejoin="round" stroke-linecap="round"/><circle cx="540" cy="222" r="16" fill="#143c56"/><circle cx="612" cy="222" r="16" fill="#143c56"/></g>
    <g filter="url(#hidden-shadow)"><circle cx="948" cy="220" r="43.199999999999996" fill="#ff9f45" stroke="#143c56" stroke-width="6" stroke-linejoin="round" stroke-linecap="round"/><ellipse cx="948" cy="220" rx="55.2" ry="16.8" fill="none" stroke="#4aa3ff" stroke-width="10" transform="rotate(-18 948 220)"/></g>
    <g filter="url(#hidden-shadow)"><rect x="228" y="460.00000000000006" width="132" height="104" rx="20" fill="#f45d5d" stroke="#143c56" stroke-width="6" stroke-linejoin="round" stroke-linecap="round"/><circle cx="294" cy="512" r="16.64" fill="#5ac878" stroke="#143c56" stroke-width="6" stroke-linejoin="round" stroke-linecap="round"/></g>
    <g filter="url(#hidden-shadow)"><rect x="588" y="467.99999999999994" width="132" height="104" rx="20" fill="#4aa3ff" stroke="#143c56" stroke-width="6" stroke-linejoin="round" stroke-linecap="round"/><circle cx="654" cy="520" r="16.64" fill="#ffd45a" stroke="#143c56" stroke-width="6" stroke-linejoin="round" stroke-linecap="round"/></g>
    <g filter="url(#hidden-shadow)"><rect x="936" y="540" width="120" height="104" rx="20" fill="#5ac878" stroke="#143c56" stroke-width="6" stroke-linejoin="round" stroke-linecap="round"/><circle cx="996" cy="592" r="16.64" fill="#a982ff" stroke="#143c56" stroke-width="6" stroke-linejoin="round" stroke-linecap="round"/></g>
</svg>
