<svg xmlns="http://www.w3.org/2000/svg" width="1200" height="800" viewBox="0 0 1200 800" role="img" aria-label="Space Room Hunt hidden objects scene">
  <defs>
    <filter id="hidden-shadow" x="-20%" y="-20%" width="140%" height="140%">
      <feDropShadow dx="0" dy="8" stdDeviation="5" flood-color="#143c56" flood-opacity="0.16"/>
    </filter>
    <pattern id="scene-stripes-hidden_space_room_001" width="48" height="48" patternUnits="userSpaceOnUse" patternTransform="rotate(45)">
      <path d="M 0 0 L 0 48" stroke="#143c56" stroke-opacity="0.08" stroke-width="4"/>
    </pattern>
  </defs>
  <rect width="1200" height="800" fill="#27385f"/>
  <circle cx="1010" cy="110" r="68" fill="#ffd45a" opacity="0.8"/>
  <path d="M0 560 C160 500 280 612 440 552 C620 484 750 624 930 548 C1040 502 1110 512 1200 548 V800 H0Z" fill="#17233f"/>
  <rect y="560" width="1200" height="240" fill="url(#scene-stripes-hidden_space_room_001)"/>
  <rect x="56" y="72" width="214" height="164" rx="24" fill="#ffffff" stroke="#143c56" stroke-width="8" opacity="0.88"/>
  <path d="M86 196 C130 148 170 160 214 112 C238 92 258 100 270 118 V236 H86Z" fill="#42598c" opacity="0.9"/>
  <rect x="338" y="468" width="524" height="72" rx="36" fill="#ffffff" stroke="#143c56" stroke-width="8" opacity="0.9"/>
  <text x="600" y="516" text-anchor="middle" font-size="38" font-weight="900" font-family="Inter, Arial, sans-serif" fill="#143c56">Space Room Hunt</text>
  <circle cx="120" cy="336" r="8" fill="#ffd45a"/><circle cx="1090" cy="290" r="7" fill="#ffffff"/><circle cx="980" cy="210" r="5" fill="#ffffff"/>
  <path d="M216,154.8 L228.69616144951743,186.52523292150113 L262.79198060172155,188.7963638767526 L236.5428207519753,210.67476707849886 L244.91903441278967,243.8036361232474 L216,225.6 L187.08096558721033,243.8036361232474 L195.4571792480247,210.67476707849886 L169.20801939827845,188.7963638767526 L203.30383855048257,186.52523292150113 Z" fill="#f45d5d" stroke="#143c56" stroke-width="6" stroke-linejoin="round" stroke-linecap="round" filter="url(#hidden-shadow)"/>
    <g filter="url(#hidden-shadow)"><path d="M576 126 C622 178 610 212 576 234 C542 212 530 178 576 126Z" fill="#4aa3ff" stroke="#143c56" stroke-width="6" stroke-linejoin="round" stroke-linecap="round"/><circle cx="576" cy="176" r="18" fill="#ffd45a" stroke="#143c56" stroke-width="6" stroke-linejoin="round" stroke-linecap="round"/></g>
    <path d="M980 162 C920 178 890 244 930 286 C874 266 860 178 980 162Z" fill="#5ac878" stroke="#143c56" stroke-width="6" stroke-linejoin="round" stroke-linecap="round" filter="url(#hidden-shadow)"/>
    <g filter="url(#hidden-shadow)"><circle cx="294" cy="512" r="46.08" fill="#ffd45a" stroke="#143c56" stroke-width="6" stroke-linejoin="round" stroke-linecap="round"/><ellipse cx="294" cy="512" rx="58.88" ry="17.92" fill="none" stroke="#ff9f45" stroke-width="10" transform="rotate(-18 294 512)"/></g>
    <g filter="url(#hidden-shadow)"><rect x="588" y="467.99999999999994" width="132" height="104" rx="20" fill="#a982ff" stroke="#143c56" stroke-width="6" stroke-linejoin="round" stroke-linecap="round"/><circle cx="654" cy="520" r="16.64" fill="#f45d5d" stroke="#143c56" stroke-width="6" stroke-linejoin="round" stroke-linecap="round"/></g>
    <g filter="url(#hidden-shadow)"><rect x="932" y="536" width="128" height="112" rx="12" fill="#ff9f45" stroke="#143c56" stroke-width="6" stroke-linejoin="round" stroke-linecap="round"/><path d="M996 540 V644" stroke="#ffffff" stroke-width="8"/></g>
</svg>
