<svg xmlns="http://www.w3.org/2000/svg" width="520" height="520" viewBox="0 0 520 520" role="img" aria-label="Snow Cards preview">
  <rect width="520" height="520" rx="36" fill="#eef8ff"/>
  <path d="M0 378 C92 330 166 404 260 362 C372 314 438 392 520 352 V520 H0Z" fill="#dceff8" opacity="0.95"/>
  <circle cx="94" cy="86" r="38" fill="#ffd45a" opacity="0.85"/>
  <text x="260" y="88" text-anchor="middle" font-size="34" font-weight="900" font-family="Inter, Arial, sans-serif" fill="#143c56">Snow Cards</text>
  <rect x="78" y="168" width="148" height="126" rx="18" fill="#ffffff" stroke="#143c56" stroke-width="8"/>
      <rect x="124" y="206" width="56" height="50" rx="24" fill="#f45d5d" stroke="#143c56" stroke-width="6" stroke-linejoin="round" stroke-linecap="round"/><circle cx="152" cy="231" r="9.36" fill="#5ac878" stroke="#143c56" stroke-width="6" stroke-linejoin="round" stroke-linecap="round"/>
  <rect x="268" y="168" width="148" height="126" rx="18" fill="#ffffff" stroke="#143c56" stroke-width="8"/>
      <ellipse cx="342" cy="265" rx="30.42" ry="18" fill="#ffd45a" stroke="#143c56" stroke-width="6" stroke-linejoin="round" stroke-linecap="round"/><path d="M330 263 C340 189 344 189 354 263Z" fill="#4aa3ff" stroke="#143c56" stroke-width="6" stroke-linejoin="round" stroke-linecap="round"/>
  <rect x="78" y="346" width="148" height="126" rx="18" fill="#ffffff" stroke="#143c56" stroke-width="8"/>
      <path d="M152,378.58 L160.02326869379226,397.956918026782 L180.9311392256986,399.5997030311141 L164.98192144742885,413.21808197321803 L169.88042737473702,433.6102969688859 L152,422.65 L134.11957262526298,433.6102969688859 L139.01807855257115,413.21808197321803 L123.06886077430143,399.59970303111413 L143.97673130620774,397.956918026782 Z" fill="#5ac878" stroke="#143c56" stroke-width="6" stroke-linejoin="round" stroke-linecap="round"/>
  <rect x="268" y="346" width="148" height="126" rx="18" fill="#ffffff" stroke="#143c56" stroke-width="8"/>
      <rect x="314" y="384" width="56" height="50" rx="24" fill="#ffd45a" stroke="#143c56" stroke-width="6" stroke-linejoin="round" stroke-linecap="round"/><circle cx="342" cy="409" r="9.36" fill="#ff9f45" stroke="#143c56" stroke-width="6" stroke-linejoin="round" stroke-linecap="round"/>
</svg>
