<svg xmlns="http://www.w3.org/2000/svg" width="520" height="520" viewBox="0 0 520 520" role="img" aria-label="Rainy Day Cards preview">
  <rect width="520" height="520" rx="36" fill="#fff4d7"/>
  <path d="M0 378 C92 330 166 404 260 362 C372 314 438 392 520 352 V520 H0Z" fill="#dff7f2" opacity="0.95"/>
  <circle cx="94" cy="86" r="38" fill="#ffd45a" opacity="0.85"/>
  <text x="260" y="88" text-anchor="middle" font-size="34" font-weight="900" font-family="Inter, Arial, sans-serif" fill="#143c56">Rainy Day Cards</text>
  <rect x="78" y="168" width="148" height="126" rx="18" fill="#ffffff" stroke="#143c56" stroke-width="8"/>
      <path d="M118 231 C154 200 150 200 186 231Z" fill="#5ac878" stroke="#143c56" stroke-width="6" stroke-linejoin="round" stroke-linecap="round"/><path d="M152 231 V262" stroke="#143c56" stroke-width="6" stroke-linejoin="round" stroke-linecap="round"/>
  <rect x="268" y="168" width="148" height="126" rx="18" fill="#ffffff" stroke="#143c56" stroke-width="8"/>
      <rect x="314" y="206" width="56" height="50" rx="24" fill="#ffd45a" stroke="#143c56" stroke-width="6" stroke-linejoin="round" stroke-linecap="round"/><circle cx="342" cy="231" r="9.36" fill="#ff9f45" stroke="#143c56" stroke-width="6" stroke-linejoin="round" stroke-linecap="round"/>
  <rect x="78" y="346" width="148" height="126" rx="18" fill="#ffffff" stroke="#143c56" stroke-width="8"/>
      <ellipse cx="152" cy="399" rx="21.840000000000003" ry="26.520000000000003" fill="#a982ff" stroke="#143c56" stroke-width="6" stroke-linejoin="round" stroke-linecap="round"/><path d="M152 443 C134 483 176 485 154 515" fill="none" stroke="#143c56" stroke-width="6" stroke-linejoin="round" stroke-linecap="round"/>
  <rect x="268" y="346" width="148" height="126" rx="18" fill="#ffffff" stroke="#143c56" stroke-width="8"/>
      <rect x="312" y="386" width="60" height="46" rx="18" fill="#ff9f45" stroke="#143c56" stroke-width="6" stroke-linejoin="round" stroke-linecap="round"/><rect x="318" y="395" width="48" height="34" rx="9" fill="#4aa3ff" stroke="#143c56" stroke-width="6" stroke-linejoin="round" stroke-linecap="round"/>
</svg>
