<svg xmlns="http://www.w3.org/2000/svg" viewBox="0 0 100 100" role="img" aria-label="A sunny yard with several small changes">
  <rect width="100" height="100" fill="#bfe8ff"/>
  <path d="M0 76 C18 70 36 74 50 78 C70 84 88 80 100 75 L100 100 L0 100 Z" fill="#77bf5b"/>
  <circle cx="82" cy="19" r="9" fill="#ffd84d"/>
  <g stroke="#f5c63c" stroke-width="2" stroke-linecap="round">
    <path d="M82 5 L82 1"/>
    <path d="M82 38 L82 34"/>
    <path d="M68 19 L64 19"/>
    <path d="M100 19 L96 19"/>
    <path d="M72 9 L69 6"/>
    <path d="M92 9 L95 6"/>
    <path d="M72 29 L69 32"/>
    <path d="M92 29 L95 32"/>
  </g>
  <path d="M30 23 C34 18 39 18 43 23" fill="none" stroke="#2a5878" stroke-width="2" stroke-linecap="round"/>
  <path d="M42 23 C38 18 33 18 29 23" fill="none" stroke="#2a5878" stroke-width="2" stroke-linecap="round"/>
  <rect x="38" y="47" width="28" height="28" fill="#f7d79b"/>
  <path d="M34 49 L52 32 L70 49 Z" fill="#cc4f42"/>
  <rect x="47" y="59" width="10" height="16" rx="1" fill="#2468bd"/>
  <circle cx="55" cy="67" r="1" fill="#f9dc7b"/>
  <rect x="43" y="50" width="8" height="8" rx="1" fill="#8ed2f5"/>
  <circle cx="60" cy="49" r="5" fill="#8ed2f5"/>
  <path d="M43 54 H51 M47 50 V58 M55 49 H65 M60 44 V54" stroke="#ffffff" stroke-width="1"/>
  <rect x="75" y="56" width="7" height="24" rx="2" fill="#8a5a2d"/>
  <circle cx="78" cy="48" r="16" fill="#4f9f45"/>
  <circle cx="72" cy="45" r="3" fill="#e34d3d"/>
  <circle cx="76" cy="47" r="3" fill="#f0d04d"/>
  <g fill="#f7b0a7" stroke="#2f2b29" stroke-width="1">
    <ellipse cx="18" cy="71" rx="9" ry="6"/>
    <circle cx="25" cy="67" r="5"/>
    <path d="M23 63 L25 59 L27 63 Z"/>
    <path d="M27 63 L30 60 L30 65 Z"/>
    <path d="M18 69 C28 70 30 76 25 80" fill="none" stroke="#2f2b29" stroke-width="2" stroke-linecap="round"/>
  </g>
  <g stroke="#2f2b29" stroke-width="1.2" stroke-linecap="round">
    <path d="M14 76 L11 82"/>
    <path d="M20 76 L19 82"/>
  </g>
  <circle cx="66" cy="83" r="2" fill="#f9d64c"/>
  <g fill="#ff8c9a">
    <circle cx="66" cy="79" r="2"/>
    <circle cx="70" cy="83" r="2"/>
    <circle cx="66" cy="87" r="2"/>
    <circle cx="62" cy="83" r="2"/>
  </g>
</svg>
