<svg xmlns="http://www.w3.org/2000/svg" viewBox="0 0 100 100" role="img" aria-label="A sunny yard with a house, a cat, a tree, a bird, and a flower">
  <rect width="100" height="100" fill="#bfe8ff"/>
  <path d="M0 76 C18 70 36 74 50 78 C70 84 88 80 100 75 L100 100 L0 100 Z" fill="#77bf5b"/>
  <circle cx="18" cy="20" r="9" fill="#ffd84d"/>
  <g stroke="#f5c63c" stroke-width="2" stroke-linecap="round">
    <path d="M18 6 L18 1"/>
    <path d="M18 39 L18 34"/>
    <path d="M4 20 L0 20"/>
    <path d="M36 20 L32 20"/>
    <path d="M8 10 L5 7"/>
    <path d="M28 10 L31 7"/>
    <path d="M8 30 L5 33"/>
    <path d="M28 30 L31 33"/>
  </g>
  <path d="M28 23 C32 17 37 17 42 23" fill="none" stroke="#2a5878" stroke-width="2" stroke-linecap="round"/>
  <path d="M43 23 C47 18 52 18 56 23" fill="none" stroke="#2a5878" stroke-width="2" stroke-linecap="round"/>
  <rect x="38" y="47" width="28" height="28" fill="#f7d79b"/>
  <path d="M34 49 L52 32 L70 49 Z" fill="#cc4f42"/>
  <rect x="47" y="59" width="10" height="16" rx="1" fill="#9b5d34"/>
  <circle cx="55" cy="67" r="1" fill="#f9dc7b"/>
  <rect x="43" y="50" width="8" height="8" rx="1" fill="#8ed2f5"/>
  <rect x="56" y="44" width="8" height="10" rx="1" fill="#8ed2f5"/>
  <path d="M43 54 H51 M47 50 V58 M56 49 H64 M60 44 V54" stroke="#ffffff" stroke-width="1"/>
  <rect x="75" y="56" width="7" height="24" rx="2" fill="#8a5a2d"/>
  <circle cx="78" cy="48" r="16" fill="#4f9f45"/>
  <circle cx="72" cy="45" r="3" fill="#e34d3d"/>
  <circle cx="83" cy="51" r="3" fill="#e34d3d"/>
  <g fill="#f7b0a7" stroke="#2f2b29" stroke-width="1">
    <ellipse cx="18" cy="71" rx="9" ry="6"/>
    <circle cx="25" cy="67" r="5"/>
    <path d="M23 63 L25 59 L27 63 Z"/>
    <path d="M27 63 L30 60 L30 65 Z"/>
    <path d="M10 72 C4 67 3 63 8 61" fill="none" stroke="#2f2b29" stroke-width="2" stroke-linecap="round"/>
  </g>
  <g stroke="#2f2b29" stroke-width="1.2" stroke-linecap="round">
    <path d="M14 76 L11 82"/>
    <path d="M20 76 L19 82"/>
  </g>
  <circle cx="66" cy="83" r="2" fill="#f9d64c"/>
  <g fill="#ff8c9a">
    <circle cx="66" cy="79" r="2"/>
    <circle cx="70" cy="83" r="2"/>
    <circle cx="66" cy="87" r="2"/>
    <circle cx="62" cy="83" r="2"/>
  </g>
</svg>
