<svg xmlns="http://www.w3.org/2000/svg" width="1448" height="1086" viewBox="0 0 1448 1086" role="img" aria-label="Snow Play spot the difference">
  <defs>
    <filter id="soft-shadow" x="-20%" y="-20%" width="140%" height="140%">
      <feDropShadow dx="0" dy="8" stdDeviation="5" flood-color="#143c56" flood-opacity="0.16"/>
    </filter>
    <pattern id="floor-lines-spot_snow_play_001" width="52" height="52" patternUnits="userSpaceOnUse" patternTransform="rotate(45)">
      <path d="M 0 0 L 0 52" stroke="#143c56" stroke-opacity="0.08" stroke-width="4"/>
    </pattern>
  </defs>
  <g transform="translate(0 0)">
    <rect width="724" height="1086" rx="0" fill="#eef8ff"/>
    <rect y="626" width="724" height="460" fill="#dceff8"/>
    <rect y="626" width="724" height="460" fill="url(#floor-lines-spot_snow_play_001)"/>
    <circle cx="582" cy="118" r="62" fill="#ffd45a" opacity="0.7"/>
    <rect x="48" y="86" width="216" height="190" rx="24" fill="#ffffff" stroke="#143c56" stroke-width="8" opacity="0.95"/>
    <rect x="70" y="110" width="172" height="136" rx="14" fill="#ffffff"/>
    <path d="M76 226 C120 178 164 190 210 142 C228 128 240 126 244 130 L244 246 L76 246 Z" fill="#ffffff" opacity="0.46"/>
    <rect x="72" y="438" width="580" height="58" rx="29" fill="#ffffff" stroke="#143c56" stroke-width="8" opacity="0.86"/>
    <rect x="84" y="500" width="556" height="288" rx="28" fill="#fff8df" stroke="#143c56" stroke-width="8" filter="url(#soft-shadow)"/>
    <text x="362" y="580" text-anchor="middle" font-size="34" font-weight="900" font-family="Inter, Arial, sans-serif" fill="#143c56">Snow Play</text>
    <circle cx="604" cy="330" r="9" fill="#ffffff"/><circle cx="558" cy="370" r="7" fill="#ffffff"/><circle cx="140" cy="344" r="6" fill="#ffffff"/>
    <g filter="url(#soft-shadow)"><circle cx="156" cy="248" r="48" fill="#ffffff" stroke="#143c56" stroke-width="7" stroke-linejoin="round" stroke-linecap="round"/><circle cx="156" cy="182" r="36" fill="#ffffff" stroke="#143c56" stroke-width="7" stroke-linejoin="round" stroke-linecap="round"/><path d="M122 146 H190 M134 146 V108 H178 V146" stroke="#f45d5d" stroke-width="12"/><circle cx="144" cy="174" r="5" fill="#143c56"/><circle cx="168" cy="174" r="5" fill="#143c56"/></g>
    <g filter="url(#soft-shadow)"><ellipse cx="364" cy="238" rx="50.160000000000004" ry="22" fill="#ffd45a" stroke="#143c56" stroke-width="7" stroke-linejoin="round" stroke-linecap="round"/><path d="M340 236 C346 136 382 136 388 236Z" fill="#4aa3ff" stroke="#143c56" stroke-width="7" stroke-linejoin="round" stroke-linecap="round"/></g>
    <path d="M575,169.6 L587.9900540756637,201.12072442431366 L621.9821919049806,203.7345604778776 L596.0183490101228,225.82927557568632 L604.0365914632482,258.9654395221224 L575,241.1 L545.9634085367518,258.9654395221224 L553.9816509898772,225.82927557568635 L528.0178080950194,203.7345604778776 L562.0099459243363,201.12072442431366 Z" fill="#5ac878" stroke="#143c56" stroke-width="7" stroke-linejoin="round" stroke-linecap="round" filter="url(#soft-shadow)"/>
    <path d="M154 510 H208 V580 H242 C276 580 272 616 238 616 H152 Z" fill="#ffd45a" stroke="#143c56" stroke-width="7" stroke-linejoin="round" stroke-linecap="round" filter="url(#soft-shadow)"/>
    <g filter="url(#soft-shadow)"><rect x="490" y="538" width="108" height="48" rx="20" fill="#a982ff" stroke="#143c56" stroke-width="7" stroke-linejoin="round" stroke-linecap="round"/><rect x="562" y="578" width="38" height="94" rx="14" fill="#f45d5d" stroke="#143c56" stroke-width="7" stroke-linejoin="round" stroke-linecap="round"/></g>
    <g filter="url(#soft-shadow)"><rect x="346" y="883" width="32" height="82" rx="10" fill="#8c5a2b" stroke="#143c56" stroke-width="7" stroke-linejoin="round" stroke-linecap="round"/><circle cx="362" cy="837" r="58" fill="#ff9f45" stroke="#143c56" stroke-width="7" stroke-linejoin="round" stroke-linecap="round"/><circle cx="318" cy="873" r="38" fill="#ff9f45" stroke="#143c56" stroke-width="7" stroke-linejoin="round" stroke-linecap="round"/><circle cx="406" cy="873" r="38" fill="#ff9f45" stroke="#143c56" stroke-width="7" stroke-linejoin="round" stroke-linecap="round"/></g>
  </g>
  <g transform="translate(724 0)">
    <rect width="724" height="1086" rx="0" fill="#eef8ff"/>
    <rect y="626" width="724" height="460" fill="#dceff8"/>
    <rect y="626" width="724" height="460" fill="url(#floor-lines-spot_snow_play_001)"/>
    <circle cx="582" cy="118" r="62" fill="#ffd45a" opacity="0.7"/>
    <rect x="48" y="86" width="216" height="190" rx="24" fill="#ffffff" stroke="#143c56" stroke-width="8" opacity="0.95"/>
    <rect x="70" y="110" width="172" height="136" rx="14" fill="#ffffff"/>
    <path d="M76 226 C120 178 164 190 210 142 C228 128 240 126 244 130 L244 246 L76 246 Z" fill="#ffffff" opacity="0.46"/>
    <rect x="72" y="438" width="580" height="58" rx="29" fill="#ffffff" stroke="#143c56" stroke-width="8" opacity="0.86"/>
    <rect x="84" y="500" width="556" height="288" rx="28" fill="#fff8df" stroke="#143c56" stroke-width="8" filter="url(#soft-shadow)"/>
    <text x="362" y="580" text-anchor="middle" font-size="34" font-weight="900" font-family="Inter, Arial, sans-serif" fill="#143c56">Snow Play</text>
    <circle cx="604" cy="330" r="9" fill="#ffffff"/><circle cx="558" cy="370" r="7" fill="#ffffff"/><circle cx="140" cy="344" r="6" fill="#ffffff"/>
    <g filter="url(#soft-shadow)"><circle cx="156" cy="248" r="48" fill="#ffffff" stroke="#143c56" stroke-width="7" stroke-linejoin="round" stroke-linecap="round"/><circle cx="156" cy="182" r="36" fill="#ffffff" stroke="#143c56" stroke-width="7" stroke-linejoin="round" stroke-linecap="round"/><path d="M122 146 H190 M134 146 V108 H178 V146" stroke="#ffd45a" stroke-width="12"/><circle cx="144" cy="174" r="5" fill="#143c56"/><circle cx="168" cy="174" r="5" fill="#143c56"/></g>
    <g filter="url(#soft-shadow)"><ellipse cx="364" cy="238" rx="50.160000000000004" ry="22" fill="#f45d5d" stroke="#143c56" stroke-width="7" stroke-linejoin="round" stroke-linecap="round"/><path d="M340 236 C346 136 382 136 388 236Z" fill="#a982ff" stroke="#143c56" stroke-width="7" stroke-linejoin="round" stroke-linecap="round"/></g>
    <path d="M575,169.6 L587.9900540756637,201.12072442431366 L621.9821919049806,203.7345604778776 L596.0183490101228,225.82927557568632 L604.0365914632482,258.9654395221224 L575,241.1 L545.9634085367518,258.9654395221224 L553.9816509898772,225.82927557568635 L528.0178080950194,203.7345604778776 L562.0099459243363,201.12072442431366 Z" fill="#ff9f45" stroke="#143c56" stroke-width="7" stroke-linejoin="round" stroke-linecap="round" filter="url(#soft-shadow)"/>
    <path d="M154 510 H208 V580 H242 C276 580 272 616 238 616 H152 Z" fill="#f45d5d" stroke="#143c56" stroke-width="7" stroke-linejoin="round" stroke-linecap="round" filter="url(#soft-shadow)"/>
    <g filter="url(#soft-shadow)"><rect x="490" y="538" width="108" height="48" rx="20" fill="#4aa3ff" stroke="#143c56" stroke-width="7" stroke-linejoin="round" stroke-linecap="round"/><rect x="562" y="578" width="38" height="94" rx="14" fill="#ffd45a" stroke="#143c56" stroke-width="7" stroke-linejoin="round" stroke-linecap="round"/></g>
    <g filter="url(#soft-shadow)"><rect x="346" y="883" width="32" height="82" rx="10" fill="#8c5a2b" stroke="#143c56" stroke-width="7" stroke-linejoin="round" stroke-linecap="round"/><circle cx="362" cy="837" r="58" fill="#5ac878" stroke="#143c56" stroke-width="7" stroke-linejoin="round" stroke-linecap="round"/><circle cx="318" cy="873" r="38" fill="#5ac878" stroke="#143c56" stroke-width="7" stroke-linejoin="round" stroke-linecap="round"/><circle cx="406" cy="873" r="38" fill="#5ac878" stroke="#143c56" stroke-width="7" stroke-linejoin="round" stroke-linecap="round"/></g>
  </g>
  <rect x="721" y="0" width="6" height="1086" fill="#143c56" opacity="0.82"/>
</svg>
