<svg xmlns="http://www.w3.org/2000/svg" width="1448" height="1086" viewBox="0 0 1448 1086" role="img" aria-label="Ocean Corner spot the difference">
  <defs>
    <filter id="soft-shadow" x="-20%" y="-20%" width="140%" height="140%">
      <feDropShadow dx="0" dy="8" stdDeviation="5" flood-color="#143c56" flood-opacity="0.16"/>
    </filter>
    <pattern id="floor-lines-spot_ocean_corner_001" width="52" height="52" patternUnits="userSpaceOnUse" patternTransform="rotate(45)">
      <path d="M 0 0 L 0 52" stroke="#143c56" stroke-opacity="0.08" stroke-width="4"/>
    </pattern>
  </defs>
  <g transform="translate(0 0)">
    <rect width="724" height="1086" rx="0" fill="#c5f2ff"/>
    <rect y="626" width="724" height="460" fill="#8eddf4"/>
    <rect y="626" width="724" height="460" fill="url(#floor-lines-spot_ocean_corner_001)"/>
    <circle cx="582" cy="118" r="62" fill="#ff9f45" opacity="0.7"/>
    <rect x="48" y="86" width="216" height="190" rx="24" fill="#ffffff" stroke="#143c56" stroke-width="8" opacity="0.95"/>
    <rect x="70" y="110" width="172" height="136" rx="14" fill="#82ccff"/>
    <path d="M76 226 C120 178 164 190 210 142 C228 128 240 126 244 130 L244 246 L76 246 Z" fill="#ffffff" opacity="0.46"/>
    <rect x="72" y="438" width="580" height="58" rx="29" fill="#ffffff" stroke="#143c56" stroke-width="8" opacity="0.86"/>
    <rect x="84" y="500" width="556" height="288" rx="28" fill="#fff8df" stroke="#143c56" stroke-width="8" filter="url(#soft-shadow)"/>
    <text x="362" y="580" text-anchor="middle" font-size="34" font-weight="900" font-family="Inter, Arial, sans-serif" fill="#143c56">Ocean Corner</text>
    <path d="M40 358 C140 326 226 394 326 360 C424 326 514 392 680 352" fill="none" stroke="#4aa3ff" stroke-width="16" opacity="0.45"/>
    <g filter="url(#soft-shadow)"><ellipse cx="144" cy="212" rx="39.68" ry="26.88" fill="#ffd45a" stroke="#143c56" stroke-width="7" stroke-linejoin="round" stroke-linecap="round"/><path d="M204 212 L216 170 L216 254Z" fill="#ff9f45" stroke="#143c56" stroke-width="7" stroke-linejoin="round" stroke-linecap="round"/><circle cx="108" cy="202" r="6" fill="#143c56"/></g>
    <path d="M300 252 C288 152 364 108 428 252Z" fill="#a982ff" stroke="#143c56" stroke-width="7" stroke-linejoin="round" stroke-linecap="round" filter="url(#soft-shadow)"/><path d="M364 122 V238 M330 152 L356 240 M398 152 L372 240" stroke="#f45d5d" stroke-width="8" stroke-linecap="round"/>
    <g filter="url(#soft-shadow)"><path d="M526 249 L624 249 L590 297 L558 297Z" fill="#ff9f45" stroke="#143c56" stroke-width="7" stroke-linejoin="round" stroke-linecap="round"/><path d="M575 247 L575 157" stroke="#143c56" stroke-width="7" stroke-linejoin="round" stroke-linecap="round"/><path d="M579 163 L647 235 L579 235Z" fill="#4aa3ff" stroke="#143c56" stroke-width="7" stroke-linejoin="round" stroke-linecap="round"/></g>
    <path d="M190,509.76 L204.78867694767862,545.6451324215263 L243.48741847643944,548.6208842363529 L213.92858194998607,573.7748675784737 L223.05704258892868,611.4991157636471 L190,591.16 L156.94295741107132,611.4991157636471 L166.07141805001393,573.7748675784737 L136.51258152356056,548.6208842363529 L175.21132305232138,545.6451324215263 Z" fill="#f45d5d" stroke="#143c56" stroke-width="7" stroke-linejoin="round" stroke-linecap="round" filter="url(#soft-shadow)"/>
    <g filter="url(#soft-shadow)"><path d="M500 532 H588 L568 620 H520Z" fill="#4aa3ff" stroke="#143c56" stroke-width="7" stroke-linejoin="round" stroke-linecap="round"/><path d="M518 534 C544 472 570 534" fill="none" stroke="#143c56" stroke-width="7" stroke-linejoin="round" stroke-linecap="round"/><circle cx="544" cy="530" r="9" fill="#ffd45a"/></g>
    <g filter="url(#soft-shadow)"><ellipse cx="362" cy="883" rx="42.00000000000001" ry="30" fill="#5ac878" stroke="#143c56" stroke-width="7" stroke-linejoin="round" stroke-linecap="round"/><path d="M306 861 L270 821 M418 861 L454 821" stroke="#143c56" stroke-width="7" stroke-linejoin="round" stroke-linecap="round"/><circle cx="268" cy="817" r="20" fill="#a982ff" stroke="#143c56" stroke-width="7" stroke-linejoin="round" stroke-linecap="round"/><circle cx="456" cy="817" r="20" fill="#a982ff" stroke="#143c56" stroke-width="7" stroke-linejoin="round" stroke-linecap="round"/></g>
  </g>
  <g transform="translate(724 0)">
    <rect width="724" height="1086" rx="0" fill="#c5f2ff"/>
    <rect y="626" width="724" height="460" fill="#8eddf4"/>
    <rect y="626" width="724" height="460" fill="url(#floor-lines-spot_ocean_corner_001)"/>
    <circle cx="582" cy="118" r="62" fill="#ff9f45" opacity="0.7"/>
    <rect x="48" y="86" width="216" height="190" rx="24" fill="#ffffff" stroke="#143c56" stroke-width="8" opacity="0.95"/>
    <rect x="70" y="110" width="172" height="136" rx="14" fill="#82ccff"/>
    <path d="M76 226 C120 178 164 190 210 142 C228 128 240 126 244 130 L244 246 L76 246 Z" fill="#ffffff" opacity="0.46"/>
    <rect x="72" y="438" width="580" height="58" rx="29" fill="#ffffff" stroke="#143c56" stroke-width="8" opacity="0.86"/>
    <rect x="84" y="500" width="556" height="288" rx="28" fill="#fff8df" stroke="#143c56" stroke-width="8" filter="url(#soft-shadow)"/>
    <text x="362" y="580" text-anchor="middle" font-size="34" font-weight="900" font-family="Inter, Arial, sans-serif" fill="#143c56">Ocean Corner</text>
    <path d="M40 358 C140 326 226 394 326 360 C424 326 514 392 680 352" fill="none" stroke="#4aa3ff" stroke-width="16" opacity="0.45"/>
    <g filter="url(#soft-shadow)"><ellipse cx="144" cy="212" rx="39.68" ry="26.88" fill="#f45d5d" stroke="#143c56" stroke-width="7" stroke-linejoin="round" stroke-linecap="round"/><path d="M204 212 L216 170 L216 254Z" fill="#5ac878" stroke="#143c56" stroke-width="7" stroke-linejoin="round" stroke-linecap="round"/><circle cx="108" cy="202" r="6" fill="#143c56"/></g>
    <path d="M300 252 C288 152 364 108 428 252Z" fill="#4aa3ff" stroke="#143c56" stroke-width="7" stroke-linejoin="round" stroke-linecap="round" filter="url(#soft-shadow)"/><path d="M364 122 V238 M330 152 L356 240 M398 152 L372 240" stroke="#ffd45a" stroke-width="8" stroke-linecap="round"/>
    <g filter="url(#soft-shadow)"><path d="M526 249 L624 249 L590 297 L558 297Z" fill="#5ac878" stroke="#143c56" stroke-width="7" stroke-linejoin="round" stroke-linecap="round"/><path d="M575 247 L575 157" stroke="#143c56" stroke-width="7" stroke-linejoin="round" stroke-linecap="round"/><path d="M579 163 L647 235 L579 235Z" fill="#a982ff" stroke="#143c56" stroke-width="7" stroke-linejoin="round" stroke-linecap="round"/></g>
    <path d="M190,509.76 L204.78867694767862,545.6451324215263 L243.48741847643944,548.6208842363529 L213.92858194998607,573.7748675784737 L223.05704258892868,611.4991157636471 L190,591.16 L156.94295741107132,611.4991157636471 L166.07141805001393,573.7748675784737 L136.51258152356056,548.6208842363529 L175.21132305232138,545.6451324215263 Z" fill="#ffd45a" stroke="#143c56" stroke-width="7" stroke-linejoin="round" stroke-linecap="round" filter="url(#soft-shadow)"/>
    <g filter="url(#soft-shadow)"><path d="M500 532 H588 L568 620 H520Z" fill="#a982ff" stroke="#143c56" stroke-width="7" stroke-linejoin="round" stroke-linecap="round"/><path d="M518 534 C544 472 570 534" fill="none" stroke="#143c56" stroke-width="7" stroke-linejoin="round" stroke-linecap="round"/><circle cx="544" cy="530" r="9" fill="#f45d5d"/></g>
    <g filter="url(#soft-shadow)"><ellipse cx="362" cy="883" rx="42.00000000000001" ry="30" fill="#ff9f45" stroke="#143c56" stroke-width="7" stroke-linejoin="round" stroke-linecap="round"/><path d="M306 861 L270 821 M418 861 L454 821" stroke="#143c56" stroke-width="7" stroke-linejoin="round" stroke-linecap="round"/><circle cx="268" cy="817" r="20" fill="#4aa3ff" stroke="#143c56" stroke-width="7" stroke-linejoin="round" stroke-linecap="round"/><circle cx="456" cy="817" r="20" fill="#4aa3ff" stroke="#143c56" stroke-width="7" stroke-linejoin="round" stroke-linecap="round"/></g>
  </g>
  <rect x="721" y="0" width="6" height="1086" fill="#143c56" opacity="0.82"/>
</svg>
