<svg xmlns="http://www.w3.org/2000/svg" width="1448" height="1086" viewBox="0 0 1448 1086" role="img" aria-label="Train Station spot the difference">
  <defs>
    <filter id="soft-shadow" x="-20%" y="-20%" width="140%" height="140%">
      <feDropShadow dx="0" dy="8" stdDeviation="5" flood-color="#143c56" flood-opacity="0.16"/>
    </filter>
    <pattern id="floor-lines-spot_train_station_001" width="52" height="52" patternUnits="userSpaceOnUse" patternTransform="rotate(45)">
      <path d="M 0 0 L 0 52" stroke="#143c56" stroke-opacity="0.08" stroke-width="4"/>
    </pattern>
  </defs>
  <g transform="translate(0 0)">
    <rect width="724" height="1086" rx="0" fill="#e7f1f4"/>
    <rect y="626" width="724" height="460" fill="#d9d1bf"/>
    <rect y="626" width="724" height="460" fill="url(#floor-lines-spot_train_station_001)"/>
    <circle cx="582" cy="118" r="62" fill="#ffd45a" opacity="0.7"/>
    <rect x="48" y="86" width="216" height="190" rx="24" fill="#ffffff" stroke="#143c56" stroke-width="8" opacity="0.95"/>
    <rect x="70" y="110" width="172" height="136" rx="14" fill="#c5f2ff"/>
    <path d="M76 226 C120 178 164 190 210 142 C228 128 240 126 244 130 L244 246 L76 246 Z" fill="#ffffff" opacity="0.46"/>
    <rect x="72" y="438" width="580" height="58" rx="29" fill="#ffffff" stroke="#143c56" stroke-width="8" opacity="0.86"/>
    <rect x="84" y="500" width="556" height="288" rx="28" fill="#fff8df" stroke="#143c56" stroke-width="8" filter="url(#soft-shadow)"/>
    <text x="362" y="580" text-anchor="middle" font-size="34" font-weight="900" font-family="Inter, Arial, sans-serif" fill="#143c56">Train Station</text>
    <path d="M505 346 C536 310 600 314 630 354 C594 360 546 366 505 346 Z" fill="#5ac878" opacity="0.42"/>
    <g filter="url(#soft-shadow)"><rect x="108" y="176" width="96" height="78" rx="18" fill="#a982ff" stroke="#143c56" stroke-width="7" stroke-linejoin="round" stroke-linecap="round"/><rect x="132" y="134" width="82" height="48" rx="12" fill="#f45d5d" stroke="#143c56" stroke-width="7" stroke-linejoin="round" stroke-linecap="round"/><circle cx="146" cy="262" r="20" fill="#143c56"/><circle cx="166" cy="262" r="20" fill="#143c56"/></g>
    <g filter="url(#soft-shadow)"><circle cx="364" cy="194" r="44.88" fill="#ffffff" stroke="#143c56" stroke-width="7" stroke-linejoin="round" stroke-linecap="round"/><path d="M364 194 V152 M364 194 L402 214" stroke="#143c56" stroke-width="7" stroke-linejoin="round" stroke-linecap="round"/><circle cx="364" cy="194" r="8" fill="#ff9f45"/></g>
    <g filter="url(#soft-shadow)"><rect x="544" y="180" width="62" height="92" rx="22" fill="#f45d5d" stroke="#143c56" stroke-width="7" stroke-linejoin="round" stroke-linecap="round"/><path d="M543 184 C547 146 603 146 607 184" fill="none" stroke="#143c56" stroke-width="7" stroke-linejoin="round" stroke-linecap="round"/><rect x="547" y="231" width="56" height="38" rx="10" fill="#5ac878" stroke="#143c56" stroke-width="7" stroke-linejoin="round" stroke-linecap="round"/></g>
    <g filter="url(#soft-shadow)"><path d="M160 516 V620" stroke="#143c56" stroke-width="7" stroke-linejoin="round" stroke-linecap="round"/><path d="M166 520 H246 L216 574 H166Z" fill="#4aa3ff" stroke="#143c56" stroke-width="7" stroke-linejoin="round" stroke-linecap="round"/></g>
    <g filter="url(#soft-shadow)"><rect x="482" y="506" width="124" height="120" rx="14" fill="#5ac878" stroke="#143c56" stroke-width="7" stroke-linejoin="round" stroke-linecap="round"/><path d="M544 510 V622" stroke="#ffffff" stroke-width="8"/><path d="M504 546 H526" stroke="#a982ff" stroke-width="9"/><path d="M562 578 H584" stroke="#a982ff" stroke-width="9"/></g>
    <g filter="url(#soft-shadow)"><ellipse cx="362" cy="847" rx="40.5" ry="51.00000000000001" fill="#ffd45a" stroke="#143c56" stroke-width="7" stroke-linejoin="round" stroke-linecap="round"/><path d="M362 907 C344 943 384 957 364 985" fill="none" stroke="#143c56" stroke-width="7" stroke-linejoin="round" stroke-linecap="round"/><path d="M350 899 L374 899 L362 919Z" fill="#ff9f45" stroke="#143c56" stroke-width="7" stroke-linejoin="round" stroke-linecap="round"/></g>
  </g>
  <g transform="translate(724 0)">
    <rect width="724" height="1086" rx="0" fill="#e7f1f4"/>
    <rect y="626" width="724" height="460" fill="#d9d1bf"/>
    <rect y="626" width="724" height="460" fill="url(#floor-lines-spot_train_station_001)"/>
    <circle cx="582" cy="118" r="62" fill="#ffd45a" opacity="0.7"/>
    <rect x="48" y="86" width="216" height="190" rx="24" fill="#ffffff" stroke="#143c56" stroke-width="8" opacity="0.95"/>
    <rect x="70" y="110" width="172" height="136" rx="14" fill="#c5f2ff"/>
    <path d="M76 226 C120 178 164 190 210 142 C228 128 240 126 244 130 L244 246 L76 246 Z" fill="#ffffff" opacity="0.46"/>
    <rect x="72" y="438" width="580" height="58" rx="29" fill="#ffffff" stroke="#143c56" stroke-width="8" opacity="0.86"/>
    <rect x="84" y="500" width="556" height="288" rx="28" fill="#fff8df" stroke="#143c56" stroke-width="8" filter="url(#soft-shadow)"/>
    <text x="362" y="580" text-anchor="middle" font-size="34" font-weight="900" font-family="Inter, Arial, sans-serif" fill="#143c56">Train Station</text>
    <path d="M505 346 C536 310 600 314 630 354 C594 360 546 366 505 346 Z" fill="#5ac878" opacity="0.42"/>
    <g filter="url(#soft-shadow)"><rect x="108" y="176" width="96" height="78" rx="18" fill="#4aa3ff" stroke="#143c56" stroke-width="7" stroke-linejoin="round" stroke-linecap="round"/><rect x="132" y="134" width="82" height="48" rx="12" fill="#ffd45a" stroke="#143c56" stroke-width="7" stroke-linejoin="round" stroke-linecap="round"/><circle cx="146" cy="262" r="20" fill="#143c56"/><circle cx="166" cy="262" r="20" fill="#143c56"/></g>
    <g filter="url(#soft-shadow)"><circle cx="364" cy="194" r="44.88" fill="#ffffff" stroke="#143c56" stroke-width="7" stroke-linejoin="round" stroke-linecap="round"/><path d="M364 194 V152 M364 194 L402 214" stroke="#143c56" stroke-width="7" stroke-linejoin="round" stroke-linecap="round"/><circle cx="364" cy="194" r="8" fill="#5ac878"/></g>
    <g filter="url(#soft-shadow)"><rect x="544" y="180" width="62" height="92" rx="22" fill="#ffd45a" stroke="#143c56" stroke-width="7" stroke-linejoin="round" stroke-linecap="round"/><path d="M543 184 C547 146 603 146 607 184" fill="none" stroke="#143c56" stroke-width="7" stroke-linejoin="round" stroke-linecap="round"/><rect x="547" y="231" width="56" height="38" rx="10" fill="#ff9f45" stroke="#143c56" stroke-width="7" stroke-linejoin="round" stroke-linecap="round"/></g>
    <g filter="url(#soft-shadow)"><path d="M160 516 V620" stroke="#143c56" stroke-width="7" stroke-linejoin="round" stroke-linecap="round"/><path d="M166 520 H246 L216 574 H166Z" fill="#a982ff" stroke="#143c56" stroke-width="7" stroke-linejoin="round" stroke-linecap="round"/></g>
    <g filter="url(#soft-shadow)"><rect x="482" y="506" width="124" height="120" rx="14" fill="#ff9f45" stroke="#143c56" stroke-width="7" stroke-linejoin="round" stroke-linecap="round"/><path d="M544 510 V622" stroke="#ffffff" stroke-width="8"/><path d="M504 546 H526" stroke="#4aa3ff" stroke-width="9"/><path d="M562 578 H584" stroke="#4aa3ff" stroke-width="9"/></g>
    <g filter="url(#soft-shadow)"><ellipse cx="362" cy="847" rx="40.5" ry="51.00000000000001" fill="#f45d5d" stroke="#143c56" stroke-width="7" stroke-linejoin="round" stroke-linecap="round"/><path d="M362 907 C344 943 384 957 364 985" fill="none" stroke="#143c56" stroke-width="7" stroke-linejoin="round" stroke-linecap="round"/><path d="M350 899 L374 899 L362 919Z" fill="#5ac878" stroke="#143c56" stroke-width="7" stroke-linejoin="round" stroke-linecap="round"/></g>
  </g>
  <rect x="721" y="0" width="6" height="1086" fill="#143c56" opacity="0.82"/>
</svg>
