<svg xmlns="http://www.w3.org/2000/svg" width="1448" height="1086" viewBox="0 0 1448 1086" role="img" aria-label="Garden Friends spot the difference">
  <defs>
    <filter id="soft-shadow" x="-20%" y="-20%" width="140%" height="140%">
      <feDropShadow dx="0" dy="8" stdDeviation="5" flood-color="#143c56" flood-opacity="0.16"/>
    </filter>
    <pattern id="floor-lines-spot_garden_friends_001" width="52" height="52" patternUnits="userSpaceOnUse" patternTransform="rotate(45)">
      <path d="M 0 0 L 0 52" stroke="#143c56" stroke-opacity="0.08" stroke-width="4"/>
    </pattern>
  </defs>
  <g transform="translate(0 0)">
    <rect width="724" height="1086" rx="0" fill="#dff7f2"/>
    <rect y="626" width="724" height="460" fill="#baf1d4"/>
    <rect y="626" width="724" height="460" fill="url(#floor-lines-spot_garden_friends_001)"/>
    <circle cx="582" cy="118" r="62" fill="#ffd45a" opacity="0.7"/>
    <rect x="48" y="86" width="216" height="190" rx="24" fill="#ffffff" stroke="#143c56" stroke-width="8" opacity="0.95"/>
    <rect x="70" y="110" width="172" height="136" rx="14" fill="#c5f2ff"/>
    <path d="M76 226 C120 178 164 190 210 142 C228 128 240 126 244 130 L244 246 L76 246 Z" fill="#ffffff" opacity="0.46"/>
    <rect x="72" y="438" width="580" height="58" rx="29" fill="#ffffff" stroke="#143c56" stroke-width="8" opacity="0.86"/>
    <rect x="84" y="500" width="556" height="288" rx="28" fill="#fff8df" stroke="#143c56" stroke-width="8" filter="url(#soft-shadow)"/>
    <text x="362" y="580" text-anchor="middle" font-size="34" font-weight="900" font-family="Inter, Arial, sans-serif" fill="#143c56">Garden Friends</text>
    <path d="M505 346 C536 310 600 314 630 354 C594 360 546 366 505 346 Z" fill="#5ac878" opacity="0.42"/>
    <g filter="url(#soft-shadow)"><path d="M156 234 V264" stroke="#34895e" stroke-width="10"/><circle cx="156" cy="212" r="23" fill="#a982ff" stroke="#143c56" stroke-width="7" stroke-linejoin="round" stroke-linecap="round"/><ellipse cx="156" cy="212" rx="24" ry="42" fill="#5ac878" transform="rotate(0 156 212)" stroke="#143c56" stroke-width="7" stroke-linejoin="round" stroke-linecap="round"/><ellipse cx="156" cy="212" rx="24" ry="42" fill="#5ac878" transform="rotate(60 156 212)" stroke="#143c56" stroke-width="7" stroke-linejoin="round" stroke-linecap="round"/><ellipse cx="156" cy="212" rx="24" ry="42" fill="#5ac878" transform="rotate(120 156 212)" stroke="#143c56" stroke-width="7" stroke-linejoin="round" stroke-linecap="round"/><ellipse cx="156" cy="212" rx="24" ry="42" fill="#5ac878" transform="rotate(180 156 212)" stroke="#143c56" stroke-width="7" stroke-linejoin="round" stroke-linecap="round"/><ellipse cx="156" cy="212" rx="24" ry="42" fill="#5ac878" transform="rotate(240 156 212)" stroke="#143c56" stroke-width="7" stroke-linejoin="round" stroke-linecap="round"/><ellipse cx="156" cy="212" rx="24" ry="42" fill="#5ac878" transform="rotate(300 156 212)" stroke="#143c56" stroke-width="7" stroke-linejoin="round" stroke-linecap="round"/></g>
    <g filter="url(#soft-shadow)"><ellipse cx="332" cy="176" rx="27.72" ry="33" fill="#ffd45a" stroke="#143c56" stroke-width="7" stroke-linejoin="round" stroke-linecap="round"/><ellipse cx="396" cy="176" rx="27.72" ry="33" fill="#ff9f45" stroke="#143c56" stroke-width="7" stroke-linejoin="round" stroke-linecap="round"/><ellipse cx="336" cy="230" rx="21.12" ry="25.080000000000002" fill="#ff9f45" stroke="#143c56" stroke-width="7" stroke-linejoin="round" stroke-linecap="round"/><ellipse cx="392" cy="230" rx="21.12" ry="25.080000000000002" fill="#ffd45a" stroke="#143c56" stroke-width="7" stroke-linejoin="round" stroke-linecap="round"/><rect x="356" y="146" width="16" height="104" rx="8" fill="#143c56"/></g>
    <g filter="url(#soft-shadow)"><rect x="544" y="201" width="52" height="74" rx="18" fill="#a982ff" stroke="#143c56" stroke-width="7" stroke-linejoin="round" stroke-linecap="round"/><path d="M596 213 L638 173" stroke="#143c56" stroke-width="7" stroke-linejoin="round" stroke-linecap="round"/><path d="M544 215 C502 201 504 281 544 267" fill="none" stroke="#143c56" stroke-width="7" stroke-linejoin="round" stroke-linecap="round"/><circle cx="636" cy="171" r="10" fill="#f45d5d"/></g>
    <g filter="url(#soft-shadow)"><ellipse cx="190" cy="570" rx="48.84" ry="35.519999999999996" fill="#ff9f45" stroke="#143c56" stroke-width="7" stroke-linejoin="round" stroke-linecap="round"/><circle cx="232" cy="544" r="20.720000000000002" fill="#ff9f45" stroke="#143c56" stroke-width="7" stroke-linejoin="round" stroke-linecap="round"/><path d="M256 542 L286 556 L256 568Z" fill="#4aa3ff" stroke="#143c56" stroke-width="7" stroke-linejoin="round" stroke-linecap="round"/><circle cx="240" cy="538" r="6" fill="#143c56"/></g>
    <path d="M508 510 H562 V580 H596 C630 580 626 616 592 616 H506 Z" fill="#f45d5d" stroke="#143c56" stroke-width="7" stroke-linejoin="round" stroke-linecap="round" filter="url(#soft-shadow)"/>
    <g filter="url(#soft-shadow)"><ellipse cx="362" cy="865" rx="41.25" ry="51.00000000000001" fill="#4aa3ff" stroke="#143c56" stroke-width="7" stroke-linejoin="round" stroke-linecap="round"/><circle cx="362" cy="816" r="22.5" fill="#ffd45a" stroke="#143c56" stroke-width="7" stroke-linejoin="round" stroke-linecap="round"/><path d="M304 855 H420 M308 889 H416" stroke="#143c56" stroke-width="7" stroke-linejoin="round" stroke-linecap="round"/></g>
  </g>
  <g transform="translate(724 0)">
    <rect width="724" height="1086" rx="0" fill="#dff7f2"/>
    <rect y="626" width="724" height="460" fill="#baf1d4"/>
    <rect y="626" width="724" height="460" fill="url(#floor-lines-spot_garden_friends_001)"/>
    <circle cx="582" cy="118" r="62" fill="#ffd45a" opacity="0.7"/>
    <rect x="48" y="86" width="216" height="190" rx="24" fill="#ffffff" stroke="#143c56" stroke-width="8" opacity="0.95"/>
    <rect x="70" y="110" width="172" height="136" rx="14" fill="#c5f2ff"/>
    <path d="M76 226 C120 178 164 190 210 142 C228 128 240 126 244 130 L244 246 L76 246 Z" fill="#ffffff" opacity="0.46"/>
    <rect x="72" y="438" width="580" height="58" rx="29" fill="#ffffff" stroke="#143c56" stroke-width="8" opacity="0.86"/>
    <rect x="84" y="500" width="556" height="288" rx="28" fill="#fff8df" stroke="#143c56" stroke-width="8" filter="url(#soft-shadow)"/>
    <text x="362" y="580" text-anchor="middle" font-size="34" font-weight="900" font-family="Inter, Arial, sans-serif" fill="#143c56">Garden Friends</text>
    <path d="M505 346 C536 310 600 314 630 354 C594 360 546 366 505 346 Z" fill="#5ac878" opacity="0.42"/>
    <g filter="url(#soft-shadow)"><path d="M156 234 V264" stroke="#34895e" stroke-width="10"/><circle cx="156" cy="212" r="23" fill="#4aa3ff" stroke="#143c56" stroke-width="7" stroke-linejoin="round" stroke-linecap="round"/><ellipse cx="156" cy="212" rx="24" ry="42" fill="#ff9f45" transform="rotate(0 156 212)" stroke="#143c56" stroke-width="7" stroke-linejoin="round" stroke-linecap="round"/><ellipse cx="156" cy="212" rx="24" ry="42" fill="#ff9f45" transform="rotate(60 156 212)" stroke="#143c56" stroke-width="7" stroke-linejoin="round" stroke-linecap="round"/><ellipse cx="156" cy="212" rx="24" ry="42" fill="#ff9f45" transform="rotate(120 156 212)" stroke="#143c56" stroke-width="7" stroke-linejoin="round" stroke-linecap="round"/><ellipse cx="156" cy="212" rx="24" ry="42" fill="#ff9f45" transform="rotate(180 156 212)" stroke="#143c56" stroke-width="7" stroke-linejoin="round" stroke-linecap="round"/><ellipse cx="156" cy="212" rx="24" ry="42" fill="#ff9f45" transform="rotate(240 156 212)" stroke="#143c56" stroke-width="7" stroke-linejoin="round" stroke-linecap="round"/><ellipse cx="156" cy="212" rx="24" ry="42" fill="#ff9f45" transform="rotate(300 156 212)" stroke="#143c56" stroke-width="7" stroke-linejoin="round" stroke-linecap="round"/></g>
    <g filter="url(#soft-shadow)"><ellipse cx="332" cy="176" rx="27.72" ry="33" fill="#f45d5d" stroke="#143c56" stroke-width="7" stroke-linejoin="round" stroke-linecap="round"/><ellipse cx="396" cy="176" rx="27.72" ry="33" fill="#5ac878" stroke="#143c56" stroke-width="7" stroke-linejoin="round" stroke-linecap="round"/><ellipse cx="336" cy="230" rx="21.12" ry="25.080000000000002" fill="#5ac878" stroke="#143c56" stroke-width="7" stroke-linejoin="round" stroke-linecap="round"/><ellipse cx="392" cy="230" rx="21.12" ry="25.080000000000002" fill="#f45d5d" stroke="#143c56" stroke-width="7" stroke-linejoin="round" stroke-linecap="round"/><rect x="356" y="146" width="16" height="104" rx="8" fill="#143c56"/></g>
    <g filter="url(#soft-shadow)"><rect x="544" y="201" width="52" height="74" rx="18" fill="#4aa3ff" stroke="#143c56" stroke-width="7" stroke-linejoin="round" stroke-linecap="round"/><path d="M596 213 L638 173" stroke="#143c56" stroke-width="7" stroke-linejoin="round" stroke-linecap="round"/><path d="M544 215 C502 201 504 281 544 267" fill="none" stroke="#143c56" stroke-width="7" stroke-linejoin="round" stroke-linecap="round"/><circle cx="636" cy="171" r="10" fill="#ffd45a"/></g>
    <g filter="url(#soft-shadow)"><ellipse cx="190" cy="570" rx="48.84" ry="35.519999999999996" fill="#5ac878" stroke="#143c56" stroke-width="7" stroke-linejoin="round" stroke-linecap="round"/><circle cx="232" cy="544" r="20.720000000000002" fill="#5ac878" stroke="#143c56" stroke-width="7" stroke-linejoin="round" stroke-linecap="round"/><path d="M256 542 L286 556 L256 568Z" fill="#a982ff" stroke="#143c56" stroke-width="7" stroke-linejoin="round" stroke-linecap="round"/><circle cx="240" cy="538" r="6" fill="#143c56"/></g>
    <path d="M508 510 H562 V580 H596 C630 580 626 616 592 616 H506 Z" fill="#ffd45a" stroke="#143c56" stroke-width="7" stroke-linejoin="round" stroke-linecap="round" filter="url(#soft-shadow)"/>
    <g filter="url(#soft-shadow)"><ellipse cx="362" cy="865" rx="41.25" ry="51.00000000000001" fill="#a982ff" stroke="#143c56" stroke-width="7" stroke-linejoin="round" stroke-linecap="round"/><circle cx="362" cy="816" r="22.5" fill="#f45d5d" stroke="#143c56" stroke-width="7" stroke-linejoin="round" stroke-linecap="round"/><path d="M304 855 H420 M308 889 H416" stroke="#143c56" stroke-width="7" stroke-linejoin="round" stroke-linecap="round"/></g>
  </g>
  <rect x="721" y="0" width="6" height="1086" fill="#143c56" opacity="0.82"/>
</svg>
