<svg xmlns="http://www.w3.org/2000/svg" width="1448" height="1086" viewBox="0 0 1448 1086" role="img" aria-label="Space Room spot the difference">
  <defs>
    <filter id="soft-shadow" x="-20%" y="-20%" width="140%" height="140%">
      <feDropShadow dx="0" dy="8" stdDeviation="5" flood-color="#143c56" flood-opacity="0.16"/>
    </filter>
    <pattern id="floor-lines-spot_space_room_001" width="52" height="52" patternUnits="userSpaceOnUse" patternTransform="rotate(45)">
      <path d="M 0 0 L 0 52" stroke="#143c56" stroke-opacity="0.08" stroke-width="4"/>
    </pattern>
  </defs>
  <g transform="translate(0 0)">
    <rect width="724" height="1086" rx="0" fill="#27385f"/>
    <rect y="626" width="724" height="460" fill="#17233f"/>
    <rect y="626" width="724" height="460" fill="url(#floor-lines-spot_space_room_001)"/>
    <circle cx="582" cy="118" r="62" fill="#ffd45a" opacity="0.7"/>
    <rect x="48" y="86" width="216" height="190" rx="24" fill="#ffffff" stroke="#143c56" stroke-width="8" opacity="0.95"/>
    <rect x="70" y="110" width="172" height="136" rx="14" fill="#42598c"/>
    <path d="M76 226 C120 178 164 190 210 142 C228 128 240 126 244 130 L244 246 L76 246 Z" fill="#ffffff" opacity="0.46"/>
    <rect x="72" y="438" width="580" height="58" rx="29" fill="#ffffff" stroke="#143c56" stroke-width="8" opacity="0.86"/>
    <rect x="84" y="500" width="556" height="288" rx="28" fill="#fff8df" stroke="#143c56" stroke-width="8" filter="url(#soft-shadow)"/>
    <text x="362" y="580" text-anchor="middle" font-size="34" font-weight="900" font-family="Inter, Arial, sans-serif" fill="#143c56">Space Room</text>
    <circle cx="112" cy="350" r="7" fill="#ffd45a"/><circle cx="602" cy="352" r="8" fill="#ffd45a"/><circle cx="530" cy="74" r="5" fill="#ffffff"/>
    <path d="M156,163.36 L168.7902070898842,194.39579020240114 L202.25938895259628,196.96941339360257 L176.69498979458254,218.72420979759886 L184.5898746715059,251.35058660639743 L156,233.76 L127.4101253284941,251.35058660639743 L135.30501020541746,218.72420979759886 L109.74061104740372,196.96941339360257 L143.2097929101158,194.39579020240114 Z" fill="#f45d5d" stroke="#143c56" stroke-width="7" stroke-linejoin="round" stroke-linecap="round" filter="url(#soft-shadow)"/>
    <g filter="url(#soft-shadow)"><path d="M364 134 C424 194 406 226 364 252 C322 226 304 194 364 134Z" fill="#4aa3ff" stroke="#143c56" stroke-width="7" stroke-linejoin="round" stroke-linecap="round"/><circle cx="364" cy="190" r="22" fill="#ffd45a" stroke="#143c56" stroke-width="7" stroke-linejoin="round" stroke-linecap="round"/><path d="M330 214 L288 252 M398 214 L440 252" stroke="#143c56" stroke-width="7" stroke-linejoin="round" stroke-linecap="round"/></g>
    <path d="M613 147 C541 165 505 247 551 301 C483 277 465 169 613 147Z" fill="#5ac878" stroke="#143c56" stroke-width="7" stroke-linejoin="round" stroke-linecap="round" filter="url(#soft-shadow)"/>
    <g filter="url(#soft-shadow)"><circle cx="190" cy="566" r="41.440000000000005" fill="#ffd45a" stroke="#143c56" stroke-width="7" stroke-linejoin="round" stroke-linecap="round"/><ellipse cx="190" cy="566" rx="66.60000000000001" ry="20.720000000000002" fill="none" stroke="#ff9f45" stroke-width="12" transform="rotate(-18 190 566)"/></g>
    <g filter="url(#soft-shadow)"><rect x="510" y="518" width="68" height="56" rx="14" fill="#a982ff" stroke="#143c56" stroke-width="7" stroke-linejoin="round" stroke-linecap="round"/><rect x="498" y="584" width="92" height="32" rx="18" fill="#f45d5d" stroke="#143c56" stroke-width="7" stroke-linejoin="round" stroke-linecap="round"/><circle cx="520" cy="546" r="7" fill="#143c56"/><circle cx="568" cy="546" r="7" fill="#143c56"/><path d="M478 574 H498 M590 574 H610" stroke="#143c56" stroke-width="7" stroke-linejoin="round" stroke-linecap="round"/></g>
    <g filter="url(#soft-shadow)"><rect x="299" y="804" width="126" height="122" rx="14" fill="#ff9f45" stroke="#143c56" stroke-width="7" stroke-linejoin="round" stroke-linecap="round"/><path d="M362 808 V922" stroke="#ffffff" stroke-width="8"/><path d="M321 844 H344" stroke="#4aa3ff" stroke-width="9"/><path d="M380 876 H403" stroke="#4aa3ff" stroke-width="9"/></g>
  </g>
  <g transform="translate(724 0)">
    <rect width="724" height="1086" rx="0" fill="#27385f"/>
    <rect y="626" width="724" height="460" fill="#17233f"/>
    <rect y="626" width="724" height="460" fill="url(#floor-lines-spot_space_room_001)"/>
    <circle cx="582" cy="118" r="62" fill="#ffd45a" opacity="0.7"/>
    <rect x="48" y="86" width="216" height="190" rx="24" fill="#ffffff" stroke="#143c56" stroke-width="8" opacity="0.95"/>
    <rect x="70" y="110" width="172" height="136" rx="14" fill="#42598c"/>
    <path d="M76 226 C120 178 164 190 210 142 C228 128 240 126 244 130 L244 246 L76 246 Z" fill="#ffffff" opacity="0.46"/>
    <rect x="72" y="438" width="580" height="58" rx="29" fill="#ffffff" stroke="#143c56" stroke-width="8" opacity="0.86"/>
    <rect x="84" y="500" width="556" height="288" rx="28" fill="#fff8df" stroke="#143c56" stroke-width="8" filter="url(#soft-shadow)"/>
    <text x="362" y="580" text-anchor="middle" font-size="34" font-weight="900" font-family="Inter, Arial, sans-serif" fill="#143c56">Space Room</text>
    <circle cx="112" cy="350" r="7" fill="#ffd45a"/><circle cx="602" cy="352" r="8" fill="#ffd45a"/><circle cx="530" cy="74" r="5" fill="#ffffff"/>
    <path d="M156,163.36 L168.7902070898842,194.39579020240114 L202.25938895259628,196.96941339360257 L176.69498979458254,218.72420979759886 L184.5898746715059,251.35058660639743 L156,233.76 L127.4101253284941,251.35058660639743 L135.30501020541746,218.72420979759886 L109.74061104740372,196.96941339360257 L143.2097929101158,194.39579020240114 Z" fill="#ffd45a" stroke="#143c56" stroke-width="7" stroke-linejoin="round" stroke-linecap="round" filter="url(#soft-shadow)"/>
    <g filter="url(#soft-shadow)"><path d="M364 134 C424 194 406 226 364 252 C322 226 304 194 364 134Z" fill="#a982ff" stroke="#143c56" stroke-width="7" stroke-linejoin="round" stroke-linecap="round"/><circle cx="364" cy="190" r="22" fill="#f45d5d" stroke="#143c56" stroke-width="7" stroke-linejoin="round" stroke-linecap="round"/><path d="M330 214 L288 252 M398 214 L440 252" stroke="#143c56" stroke-width="7" stroke-linejoin="round" stroke-linecap="round"/></g>
    <path d="M613 147 C541 165 505 247 551 301 C483 277 465 169 613 147Z" fill="#ff9f45" stroke="#143c56" stroke-width="7" stroke-linejoin="round" stroke-linecap="round" filter="url(#soft-shadow)"/>
    <g filter="url(#soft-shadow)"><circle cx="190" cy="566" r="41.440000000000005" fill="#f45d5d" stroke="#143c56" stroke-width="7" stroke-linejoin="round" stroke-linecap="round"/><ellipse cx="190" cy="566" rx="66.60000000000001" ry="20.720000000000002" fill="none" stroke="#5ac878" stroke-width="12" transform="rotate(-18 190 566)"/></g>
    <g filter="url(#soft-shadow)"><rect x="510" y="518" width="68" height="56" rx="14" fill="#4aa3ff" stroke="#143c56" stroke-width="7" stroke-linejoin="round" stroke-linecap="round"/><rect x="498" y="584" width="92" height="32" rx="18" fill="#ffd45a" stroke="#143c56" stroke-width="7" stroke-linejoin="round" stroke-linecap="round"/><circle cx="520" cy="546" r="7" fill="#143c56"/><circle cx="568" cy="546" r="7" fill="#143c56"/><path d="M478 574 H498 M590 574 H610" stroke="#143c56" stroke-width="7" stroke-linejoin="round" stroke-linecap="round"/></g>
    <g filter="url(#soft-shadow)"><rect x="299" y="804" width="126" height="122" rx="14" fill="#5ac878" stroke="#143c56" stroke-width="7" stroke-linejoin="round" stroke-linecap="round"/><path d="M362 808 V922" stroke="#ffffff" stroke-width="8"/><path d="M321 844 H344" stroke="#a982ff" stroke-width="9"/><path d="M380 876 H403" stroke="#a982ff" stroke-width="9"/></g>
  </g>
  <rect x="721" y="0" width="6" height="1086" fill="#143c56" opacity="0.82"/>
</svg>
