<svg xmlns="http://www.w3.org/2000/svg" width="1448" height="1086" viewBox="0 0 1448 1086" role="img" aria-label="Birthday Table spot the difference">
  <defs>
    <filter id="soft-shadow" x="-20%" y="-20%" width="140%" height="140%">
      <feDropShadow dx="0" dy="8" stdDeviation="5" flood-color="#143c56" flood-opacity="0.16"/>
    </filter>
    <pattern id="floor-lines-spot_birthday_table_001" width="52" height="52" patternUnits="userSpaceOnUse" patternTransform="rotate(45)">
      <path d="M 0 0 L 0 52" stroke="#143c56" stroke-opacity="0.08" stroke-width="4"/>
    </pattern>
  </defs>
  <g transform="translate(0 0)">
    <rect width="724" height="1086" rx="0" fill="#fff4d7"/>
    <rect y="626" width="724" height="460" fill="#ffe1e5"/>
    <rect y="626" width="724" height="460" fill="url(#floor-lines-spot_birthday_table_001)"/>
    <circle cx="582" cy="118" r="62" fill="#ffd45a" opacity="0.7"/>
    <rect x="48" y="86" width="216" height="190" rx="24" fill="#ffffff" stroke="#143c56" stroke-width="8" opacity="0.95"/>
    <rect x="70" y="110" width="172" height="136" rx="14" fill="#c5f2ff"/>
    <path d="M76 226 C120 178 164 190 210 142 C228 128 240 126 244 130 L244 246 L76 246 Z" fill="#ffffff" opacity="0.46"/>
    <rect x="72" y="438" width="580" height="58" rx="29" fill="#ffffff" stroke="#143c56" stroke-width="8" opacity="0.86"/>
    <rect x="84" y="500" width="556" height="288" rx="28" fill="#fff8df" stroke="#143c56" stroke-width="8" filter="url(#soft-shadow)"/>
    <text x="362" y="580" text-anchor="middle" font-size="34" font-weight="900" font-family="Inter, Arial, sans-serif" fill="#143c56">Birthday Table</text>
    <path d="M505 346 C536 310 600 314 630 354 C594 360 546 366 505 346 Z" fill="#5ac878" opacity="0.42"/>
    <g filter="url(#soft-shadow)"><path d="M124 212 H188 L166 256 H146Z" fill="#5ac878" stroke="#143c56" stroke-width="7" stroke-linejoin="round" stroke-linecap="round"/><path d="M130 212 C134 152 178 152 182 212Z" fill="#a982ff" stroke="#143c56" stroke-width="7" stroke-linejoin="round" stroke-linecap="round"/><circle cx="156" cy="152" r="13" fill="#f45d5d" stroke="#143c56" stroke-width="7" stroke-linejoin="round" stroke-linecap="round"/></g>
    <g filter="url(#soft-shadow)"><ellipse cx="364" cy="176" rx="35.64" ry="44.88" fill="#ffd45a" stroke="#143c56" stroke-width="7" stroke-linejoin="round" stroke-linecap="round"/><path d="M364 236 C346 272 386 286 366 314" fill="none" stroke="#143c56" stroke-width="7" stroke-linejoin="round" stroke-linecap="round"/><path d="M352 228 L376 228 L364 248Z" fill="#ff9f45" stroke="#143c56" stroke-width="7" stroke-linejoin="round" stroke-linecap="round"/></g>
    <path d="M575,169.6 L587.9900540756637,201.12072442431366 L621.9821919049806,203.7345604778776 L596.0183490101228,225.82927557568632 L604.0365914632482,258.9654395221224 L575,241.1 L545.9634085367518,258.9654395221224 L553.9816509898772,225.82927557568635 L528.0178080950194,203.7345604778776 L562.0099459243363,201.12072442431366 Z" fill="#a982ff" stroke="#143c56" stroke-width="7" stroke-linejoin="round" stroke-linecap="round" filter="url(#soft-shadow)"/>
    <g filter="url(#soft-shadow)"><rect x="140" y="548" width="100" height="100" rx="10" fill="#ff9f45" stroke="#143c56" stroke-width="7" stroke-linejoin="round" stroke-linecap="round"/><path d="M190 548 V612 M140 590 H240" stroke="#4aa3ff" stroke-width="14"/><path d="M190 546 C146 490 104 538 172 550 C236 488 278 538 208 550" fill="none" stroke="#143c56" stroke-width="7" stroke-linejoin="round" stroke-linecap="round"/></g>
    <g filter="url(#soft-shadow)"><ellipse cx="544" cy="610" rx="56.24" ry="22" fill="#5ac878" stroke="#143c56" stroke-width="7" stroke-linejoin="round" stroke-linecap="round"/><path d="M512 608 C518 508 570 508 576 608Z" fill="#f45d5d" stroke="#143c56" stroke-width="7" stroke-linejoin="round" stroke-linecap="round"/></g>
    <g filter="url(#soft-shadow)"><path d="M321 832 H389 V912 H341Z" fill="#4aa3ff" stroke="#143c56" stroke-width="7" stroke-linejoin="round" stroke-linecap="round"/><path d="M389 856 C455 852 451 918 389 914" fill="none" stroke="#143c56" stroke-width="7" stroke-linejoin="round" stroke-linecap="round"/></g>
  </g>
  <g transform="translate(724 0)">
    <rect width="724" height="1086" rx="0" fill="#fff4d7"/>
    <rect y="626" width="724" height="460" fill="#ffe1e5"/>
    <rect y="626" width="724" height="460" fill="url(#floor-lines-spot_birthday_table_001)"/>
    <circle cx="582" cy="118" r="62" fill="#ffd45a" opacity="0.7"/>
    <rect x="48" y="86" width="216" height="190" rx="24" fill="#ffffff" stroke="#143c56" stroke-width="8" opacity="0.95"/>
    <rect x="70" y="110" width="172" height="136" rx="14" fill="#c5f2ff"/>
    <path d="M76 226 C120 178 164 190 210 142 C228 128 240 126 244 130 L244 246 L76 246 Z" fill="#ffffff" opacity="0.46"/>
    <rect x="72" y="438" width="580" height="58" rx="29" fill="#ffffff" stroke="#143c56" stroke-width="8" opacity="0.86"/>
    <rect x="84" y="500" width="556" height="288" rx="28" fill="#fff8df" stroke="#143c56" stroke-width="8" filter="url(#soft-shadow)"/>
    <text x="362" y="580" text-anchor="middle" font-size="34" font-weight="900" font-family="Inter, Arial, sans-serif" fill="#143c56">Birthday Table</text>
    <path d="M505 346 C536 310 600 314 630 354 C594 360 546 366 505 346 Z" fill="#5ac878" opacity="0.42"/>
    <g filter="url(#soft-shadow)"><path d="M124 212 H188 L166 256 H146Z" fill="#ff9f45" stroke="#143c56" stroke-width="7" stroke-linejoin="round" stroke-linecap="round"/><path d="M130 212 C134 152 178 152 182 212Z" fill="#4aa3ff" stroke="#143c56" stroke-width="7" stroke-linejoin="round" stroke-linecap="round"/><circle cx="156" cy="152" r="13" fill="#f45d5d" stroke="#143c56" stroke-width="7" stroke-linejoin="round" stroke-linecap="round"/></g>
    <g filter="url(#soft-shadow)"><ellipse cx="364" cy="176" rx="35.64" ry="44.88" fill="#f45d5d" stroke="#143c56" stroke-width="7" stroke-linejoin="round" stroke-linecap="round"/><path d="M364 236 C346 272 386 286 366 314" fill="none" stroke="#143c56" stroke-width="7" stroke-linejoin="round" stroke-linecap="round"/><path d="M352 228 L376 228 L364 248Z" fill="#5ac878" stroke="#143c56" stroke-width="7" stroke-linejoin="round" stroke-linecap="round"/></g>
    <path d="M575,169.6 L587.9900540756637,201.12072442431366 L621.9821919049806,203.7345604778776 L596.0183490101228,225.82927557568632 L604.0365914632482,258.9654395221224 L575,241.1 L545.9634085367518,258.9654395221224 L553.9816509898772,225.82927557568635 L528.0178080950194,203.7345604778776 L562.0099459243363,201.12072442431366 Z" fill="#4aa3ff" stroke="#143c56" stroke-width="7" stroke-linejoin="round" stroke-linecap="round" filter="url(#soft-shadow)"/>
    <g filter="url(#soft-shadow)"><rect x="140" y="548" width="100" height="100" rx="10" fill="#5ac878" stroke="#143c56" stroke-width="7" stroke-linejoin="round" stroke-linecap="round"/><path d="M190 548 V612 M140 590 H240" stroke="#a982ff" stroke-width="14"/><path d="M190 546 C146 490 104 538 172 550 C236 488 278 538 208 550" fill="none" stroke="#143c56" stroke-width="7" stroke-linejoin="round" stroke-linecap="round"/></g>
    <g filter="url(#soft-shadow)"><ellipse cx="544" cy="610" rx="56.24" ry="22" fill="#ff9f45" stroke="#143c56" stroke-width="7" stroke-linejoin="round" stroke-linecap="round"/><path d="M512 608 C518 508 570 508 576 608Z" fill="#ffd45a" stroke="#143c56" stroke-width="7" stroke-linejoin="round" stroke-linecap="round"/></g>
    <g filter="url(#soft-shadow)"><path d="M321 832 H389 V912 H341Z" fill="#a982ff" stroke="#143c56" stroke-width="7" stroke-linejoin="round" stroke-linecap="round"/><path d="M389 856 C455 852 451 918 389 914" fill="none" stroke="#143c56" stroke-width="7" stroke-linejoin="round" stroke-linecap="round"/></g>
  </g>
  <rect x="721" y="0" width="6" height="1086" fill="#143c56" opacity="0.82"/>
</svg>
