<svg xmlns="http://www.w3.org/2000/svg" width="1448" height="1086" viewBox="0 0 1448 1086" role="img" aria-label="Zoo Path spot the difference">
  <defs>
    <filter id="soft-shadow" x="-20%" y="-20%" width="140%" height="140%">
      <feDropShadow dx="0" dy="8" stdDeviation="5" flood-color="#143c56" flood-opacity="0.16"/>
    </filter>
    <pattern id="floor-lines-spot_zoo_path_001" width="52" height="52" patternUnits="userSpaceOnUse" patternTransform="rotate(45)">
      <path d="M 0 0 L 0 52" stroke="#143c56" stroke-opacity="0.08" stroke-width="4"/>
    </pattern>
  </defs>
  <g transform="translate(0 0)">
    <rect width="724" height="1086" rx="0" fill="#dff7f2"/>
    <rect y="626" width="724" height="460" fill="#cde6a7"/>
    <rect y="626" width="724" height="460" fill="url(#floor-lines-spot_zoo_path_001)"/>
    <circle cx="582" cy="118" r="62" fill="#ffd45a" opacity="0.7"/>
    <rect x="48" y="86" width="216" height="190" rx="24" fill="#ffffff" stroke="#143c56" stroke-width="8" opacity="0.95"/>
    <rect x="70" y="110" width="172" height="136" rx="14" fill="#c5f2ff"/>
    <path d="M76 226 C120 178 164 190 210 142 C228 128 240 126 244 130 L244 246 L76 246 Z" fill="#ffffff" opacity="0.46"/>
    <rect x="72" y="438" width="580" height="58" rx="29" fill="#ffffff" stroke="#143c56" stroke-width="8" opacity="0.86"/>
    <rect x="84" y="500" width="556" height="288" rx="28" fill="#fff8df" stroke="#143c56" stroke-width="8" filter="url(#soft-shadow)"/>
    <text x="362" y="580" text-anchor="middle" font-size="34" font-weight="900" font-family="Inter, Arial, sans-serif" fill="#143c56">Zoo Path</text>
    <path d="M505 346 C536 310 600 314 630 354 C594 360 546 366 505 346 Z" fill="#5ac878" opacity="0.42"/>
    <g filter="url(#soft-shadow)"><ellipse cx="156" cy="216" rx="42.24" ry="30.72" fill="#a982ff" stroke="#143c56" stroke-width="7" stroke-linejoin="round" stroke-linecap="round"/><circle cx="198" cy="190" r="17.92" fill="#a982ff" stroke="#143c56" stroke-width="7" stroke-linejoin="round" stroke-linecap="round"/><path d="M222 188 L252 202 L222 214Z" fill="#f45d5d" stroke="#143c56" stroke-width="7" stroke-linejoin="round" stroke-linecap="round"/><circle cx="206" cy="184" r="6" fill="#143c56"/></g>
    <g filter="url(#soft-shadow)"><ellipse cx="352" cy="194" rx="40.92" ry="27.72" fill="#ff9f45" stroke="#143c56" stroke-width="7" stroke-linejoin="round" stroke-linecap="round"/><path d="M412 194 L426 152 L426 236Z" fill="#4aa3ff" stroke="#143c56" stroke-width="7" stroke-linejoin="round" stroke-linecap="round"/><circle cx="316" cy="184" r="6" fill="#143c56"/></g>
    <path d="M536 239 C598 132 634 164 614 291 C610 285 560 277 536 239Z" fill="#f45d5d" stroke="#143c56" stroke-width="7" stroke-linejoin="round" stroke-linecap="round" filter="url(#soft-shadow)"/>
    <g filter="url(#soft-shadow)"><ellipse cx="190" cy="610" rx="56.24" ry="22" fill="#ffd45a" stroke="#143c56" stroke-width="7" stroke-linejoin="round" stroke-linecap="round"/><path d="M158 608 C164 508 216 508 222 608Z" fill="#4aa3ff" stroke="#143c56" stroke-width="7" stroke-linejoin="round" stroke-linecap="round"/></g>
    <g filter="url(#soft-shadow)"><ellipse cx="544" cy="548" rx="39.96" ry="50.32" fill="#5ac878" stroke="#143c56" stroke-width="7" stroke-linejoin="round" stroke-linecap="round"/><path d="M544 608 C526 644 566 658 546 686" fill="none" stroke="#143c56" stroke-width="7" stroke-linejoin="round" stroke-linecap="round"/><path d="M532 600 L556 600 L544 620Z" fill="#a982ff" stroke="#143c56" stroke-width="7" stroke-linejoin="round" stroke-linecap="round"/></g>
    <g filter="url(#soft-shadow)"><rect x="305" y="821" width="114" height="92" rx="18" fill="#ffd45a" stroke="#143c56" stroke-width="7" stroke-linejoin="round" stroke-linecap="round"/><circle cx="362" cy="867" r="30" fill="#ff9f45" stroke="#143c56" stroke-width="7" stroke-linejoin="round" stroke-linecap="round"/><rect x="335" y="795" width="54" height="28" rx="8" fill="#ffd45a" stroke="#143c56" stroke-width="7" stroke-linejoin="round" stroke-linecap="round"/></g>
  </g>
  <g transform="translate(724 0)">
    <rect width="724" height="1086" rx="0" fill="#dff7f2"/>
    <rect y="626" width="724" height="460" fill="#cde6a7"/>
    <rect y="626" width="724" height="460" fill="url(#floor-lines-spot_zoo_path_001)"/>
    <circle cx="582" cy="118" r="62" fill="#ffd45a" opacity="0.7"/>
    <rect x="48" y="86" width="216" height="190" rx="24" fill="#ffffff" stroke="#143c56" stroke-width="8" opacity="0.95"/>
    <rect x="70" y="110" width="172" height="136" rx="14" fill="#c5f2ff"/>
    <path d="M76 226 C120 178 164 190 210 142 C228 128 240 126 244 130 L244 246 L76 246 Z" fill="#ffffff" opacity="0.46"/>
    <rect x="72" y="438" width="580" height="58" rx="29" fill="#ffffff" stroke="#143c56" stroke-width="8" opacity="0.86"/>
    <rect x="84" y="500" width="556" height="288" rx="28" fill="#fff8df" stroke="#143c56" stroke-width="8" filter="url(#soft-shadow)"/>
    <text x="362" y="580" text-anchor="middle" font-size="34" font-weight="900" font-family="Inter, Arial, sans-serif" fill="#143c56">Zoo Path</text>
    <path d="M505 346 C536 310 600 314 630 354 C594 360 546 366 505 346 Z" fill="#5ac878" opacity="0.42"/>
    <g filter="url(#soft-shadow)"><ellipse cx="156" cy="216" rx="42.24" ry="30.72" fill="#4aa3ff" stroke="#143c56" stroke-width="7" stroke-linejoin="round" stroke-linecap="round"/><circle cx="198" cy="190" r="17.92" fill="#4aa3ff" stroke="#143c56" stroke-width="7" stroke-linejoin="round" stroke-linecap="round"/><path d="M222 188 L252 202 L222 214Z" fill="#ffd45a" stroke="#143c56" stroke-width="7" stroke-linejoin="round" stroke-linecap="round"/><circle cx="206" cy="184" r="6" fill="#143c56"/></g>
    <g filter="url(#soft-shadow)"><ellipse cx="352" cy="194" rx="40.92" ry="27.72" fill="#5ac878" stroke="#143c56" stroke-width="7" stroke-linejoin="round" stroke-linecap="round"/><path d="M412 194 L426 152 L426 236Z" fill="#a982ff" stroke="#143c56" stroke-width="7" stroke-linejoin="round" stroke-linecap="round"/><circle cx="316" cy="184" r="6" fill="#143c56"/></g>
    <path d="M536 239 C598 132 634 164 614 291 C610 285 560 277 536 239Z" fill="#ffd45a" stroke="#143c56" stroke-width="7" stroke-linejoin="round" stroke-linecap="round" filter="url(#soft-shadow)"/>
    <g filter="url(#soft-shadow)"><ellipse cx="190" cy="610" rx="56.24" ry="22" fill="#f45d5d" stroke="#143c56" stroke-width="7" stroke-linejoin="round" stroke-linecap="round"/><path d="M158 608 C164 508 216 508 222 608Z" fill="#a982ff" stroke="#143c56" stroke-width="7" stroke-linejoin="round" stroke-linecap="round"/></g>
    <g filter="url(#soft-shadow)"><ellipse cx="544" cy="548" rx="39.96" ry="50.32" fill="#ff9f45" stroke="#143c56" stroke-width="7" stroke-linejoin="round" stroke-linecap="round"/><path d="M544 608 C526 644 566 658 546 686" fill="none" stroke="#143c56" stroke-width="7" stroke-linejoin="round" stroke-linecap="round"/><path d="M532 600 L556 600 L544 620Z" fill="#4aa3ff" stroke="#143c56" stroke-width="7" stroke-linejoin="round" stroke-linecap="round"/></g>
    <g filter="url(#soft-shadow)"><rect x="305" y="821" width="114" height="92" rx="18" fill="#f45d5d" stroke="#143c56" stroke-width="7" stroke-linejoin="round" stroke-linecap="round"/><circle cx="362" cy="867" r="30" fill="#5ac878" stroke="#143c56" stroke-width="7" stroke-linejoin="round" stroke-linecap="round"/><rect x="335" y="795" width="54" height="28" rx="8" fill="#f45d5d" stroke="#143c56" stroke-width="7" stroke-linejoin="round" stroke-linecap="round"/></g>
  </g>
  <rect x="721" y="0" width="6" height="1086" fill="#143c56" opacity="0.82"/>
</svg>
