<svg xmlns="http://www.w3.org/2000/svg" width="1448" height="1086" viewBox="0 0 1448 1086" role="img" aria-label="Camping Night spot the difference">
  <defs>
    <filter id="soft-shadow" x="-20%" y="-20%" width="140%" height="140%">
      <feDropShadow dx="0" dy="8" stdDeviation="5" flood-color="#143c56" flood-opacity="0.16"/>
    </filter>
    <pattern id="floor-lines-spot_camping_night_001" width="52" height="52" patternUnits="userSpaceOnUse" patternTransform="rotate(45)">
      <path d="M 0 0 L 0 52" stroke="#143c56" stroke-opacity="0.08" stroke-width="4"/>
    </pattern>
  </defs>
  <g transform="translate(0 0)">
    <rect width="724" height="1086" rx="0" fill="#2e4f6d"/>
    <rect y="626" width="724" height="460" fill="#23415b"/>
    <rect y="626" width="724" height="460" fill="url(#floor-lines-spot_camping_night_001)"/>
    <circle cx="582" cy="118" r="62" fill="#ffd45a" opacity="0.7"/>
    <rect x="48" y="86" width="216" height="190" rx="24" fill="#ffffff" stroke="#143c56" stroke-width="8" opacity="0.95"/>
    <rect x="70" y="110" width="172" height="136" rx="14" fill="#7fc889"/>
    <path d="M76 226 C120 178 164 190 210 142 C228 128 240 126 244 130 L244 246 L76 246 Z" fill="#ffffff" opacity="0.46"/>
    <rect x="72" y="438" width="580" height="58" rx="29" fill="#ffffff" stroke="#143c56" stroke-width="8" opacity="0.86"/>
    <rect x="84" y="500" width="556" height="288" rx="28" fill="#fff8df" stroke="#143c56" stroke-width="8" filter="url(#soft-shadow)"/>
    <text x="362" y="580" text-anchor="middle" font-size="34" font-weight="900" font-family="Inter, Arial, sans-serif" fill="#143c56">Camping Night</text>
    <circle cx="112" cy="350" r="7" fill="#ffd45a"/><circle cx="602" cy="352" r="8" fill="#ffd45a"/><circle cx="530" cy="74" r="5" fill="#ffffff"/>
    <g filter="url(#soft-shadow)"><path d="M104 256 L156 168 L208 256Z" fill="#a982ff" stroke="#143c56" stroke-width="7" stroke-linejoin="round" stroke-linecap="round"/><path d="M156 168 L164 256 H104Z" fill="#f45d5d" stroke="#143c56" stroke-width="7" stroke-linejoin="round" stroke-linecap="round"/></g>
    <path d="M364,143.84 L377.1899010614431,175.84565864622618 L411.7049948573649,178.49970756215265 L385.34170822566324,200.93434135377382 L393.48330825499045,234.58029243784736 L364,216.44 L334.51669174500955,234.58029243784736 L342.65829177433676,200.93434135377382 L316.2950051426351,178.49970756215265 L350.8100989385569,175.84565864622618 Z" fill="#ff9f45" stroke="#143c56" stroke-width="7" stroke-linejoin="round" stroke-linecap="round" filter="url(#soft-shadow)"/>
    <path d="M613 147 C541 165 505 247 551 301 C483 277 465 169 613 147Z" fill="#f45d5d" stroke="#143c56" stroke-width="7" stroke-linejoin="round" stroke-linecap="round" filter="url(#soft-shadow)"/>
    <g filter="url(#soft-shadow)"><path d="M150 534 H216 V612 H170Z" fill="#4aa3ff" stroke="#143c56" stroke-width="7" stroke-linejoin="round" stroke-linecap="round"/><path d="M216 558 C282 554 278 620 216 616" fill="none" stroke="#143c56" stroke-width="7" stroke-linejoin="round" stroke-linecap="round"/></g>
    <g filter="url(#soft-shadow)"><ellipse cx="532" cy="566" rx="45.88" ry="31.08" fill="#5ac878" stroke="#143c56" stroke-width="7" stroke-linejoin="round" stroke-linecap="round"/><path d="M592 566 L614 524 L614 608Z" fill="#a982ff" stroke="#143c56" stroke-width="7" stroke-linejoin="round" stroke-linecap="round"/><circle cx="496" cy="556" r="6" fill="#143c56"/></g>
    <g filter="url(#soft-shadow)"><path d="M331 814 V920" stroke="#143c56" stroke-width="7" stroke-linejoin="round" stroke-linecap="round"/><path d="M337 818 H419 L389 872 H337Z" fill="#ffd45a" stroke="#143c56" stroke-width="7" stroke-linejoin="round" stroke-linecap="round"/></g>
  </g>
  <g transform="translate(724 0)">
    <rect width="724" height="1086" rx="0" fill="#2e4f6d"/>
    <rect y="626" width="724" height="460" fill="#23415b"/>
    <rect y="626" width="724" height="460" fill="url(#floor-lines-spot_camping_night_001)"/>
    <circle cx="582" cy="118" r="62" fill="#ffd45a" opacity="0.7"/>
    <rect x="48" y="86" width="216" height="190" rx="24" fill="#ffffff" stroke="#143c56" stroke-width="8" opacity="0.95"/>
    <rect x="70" y="110" width="172" height="136" rx="14" fill="#7fc889"/>
    <path d="M76 226 C120 178 164 190 210 142 C228 128 240 126 244 130 L244 246 L76 246 Z" fill="#ffffff" opacity="0.46"/>
    <rect x="72" y="438" width="580" height="58" rx="29" fill="#ffffff" stroke="#143c56" stroke-width="8" opacity="0.86"/>
    <rect x="84" y="500" width="556" height="288" rx="28" fill="#fff8df" stroke="#143c56" stroke-width="8" filter="url(#soft-shadow)"/>
    <text x="362" y="580" text-anchor="middle" font-size="34" font-weight="900" font-family="Inter, Arial, sans-serif" fill="#143c56">Camping Night</text>
    <circle cx="112" cy="350" r="7" fill="#ffd45a"/><circle cx="602" cy="352" r="8" fill="#ffd45a"/><circle cx="530" cy="74" r="5" fill="#ffffff"/>
    <g filter="url(#soft-shadow)"><path d="M104 256 L156 168 L208 256Z" fill="#4aa3ff" stroke="#143c56" stroke-width="7" stroke-linejoin="round" stroke-linecap="round"/><path d="M156 168 L164 256 H104Z" fill="#ffd45a" stroke="#143c56" stroke-width="7" stroke-linejoin="round" stroke-linecap="round"/></g>
    <path d="M364,143.84 L377.1899010614431,175.84565864622618 L411.7049948573649,178.49970756215265 L385.34170822566324,200.93434135377382 L393.48330825499045,234.58029243784736 L364,216.44 L334.51669174500955,234.58029243784736 L342.65829177433676,200.93434135377382 L316.2950051426351,178.49970756215265 L350.8100989385569,175.84565864622618 Z" fill="#5ac878" stroke="#143c56" stroke-width="7" stroke-linejoin="round" stroke-linecap="round" filter="url(#soft-shadow)"/>
    <path d="M613 147 C541 165 505 247 551 301 C483 277 465 169 613 147Z" fill="#ffd45a" stroke="#143c56" stroke-width="7" stroke-linejoin="round" stroke-linecap="round" filter="url(#soft-shadow)"/>
    <g filter="url(#soft-shadow)"><path d="M150 534 H216 V612 H170Z" fill="#a982ff" stroke="#143c56" stroke-width="7" stroke-linejoin="round" stroke-linecap="round"/><path d="M216 558 C282 554 278 620 216 616" fill="none" stroke="#143c56" stroke-width="7" stroke-linejoin="round" stroke-linecap="round"/></g>
    <g filter="url(#soft-shadow)"><ellipse cx="532" cy="566" rx="45.88" ry="31.08" fill="#ff9f45" stroke="#143c56" stroke-width="7" stroke-linejoin="round" stroke-linecap="round"/><path d="M592 566 L614 524 L614 608Z" fill="#4aa3ff" stroke="#143c56" stroke-width="7" stroke-linejoin="round" stroke-linecap="round"/><circle cx="496" cy="556" r="6" fill="#143c56"/></g>
    <g filter="url(#soft-shadow)"><path d="M331 814 V920" stroke="#143c56" stroke-width="7" stroke-linejoin="round" stroke-linecap="round"/><path d="M337 818 H419 L389 872 H337Z" fill="#f45d5d" stroke="#143c56" stroke-width="7" stroke-linejoin="round" stroke-linecap="round"/></g>
  </g>
  <rect x="721" y="0" width="6" height="1086" fill="#143c56" opacity="0.82"/>
</svg>
