<svg xmlns="http://www.w3.org/2000/svg" width="1448" height="1086" viewBox="0 0 1448 1086" role="img" aria-label="Dinosaur Museum spot the difference">
  <defs>
    <filter id="soft-shadow" x="-20%" y="-20%" width="140%" height="140%">
      <feDropShadow dx="0" dy="8" stdDeviation="5" flood-color="#143c56" flood-opacity="0.16"/>
    </filter>
    <pattern id="floor-lines-spot_dinosaur_museum_001" width="52" height="52" patternUnits="userSpaceOnUse" patternTransform="rotate(45)">
      <path d="M 0 0 L 0 52" stroke="#143c56" stroke-opacity="0.08" stroke-width="4"/>
    </pattern>
  </defs>
  <g transform="translate(0 0)">
    <rect width="724" height="1086" rx="0" fill="#f4ead7"/>
    <rect y="626" width="724" height="460" fill="#d9c8a5"/>
    <rect y="626" width="724" height="460" fill="url(#floor-lines-spot_dinosaur_museum_001)"/>
    <circle cx="582" cy="118" r="62" fill="#ff9f45" opacity="0.7"/>
    <rect x="48" y="86" width="216" height="190" rx="24" fill="#ffffff" stroke="#143c56" stroke-width="8" opacity="0.95"/>
    <rect x="70" y="110" width="172" height="136" rx="14" fill="#c5f2ff"/>
    <path d="M76 226 C120 178 164 190 210 142 C228 128 240 126 244 130 L244 246 L76 246 Z" fill="#ffffff" opacity="0.46"/>
    <rect x="72" y="438" width="580" height="58" rx="29" fill="#ffffff" stroke="#143c56" stroke-width="8" opacity="0.86"/>
    <rect x="84" y="500" width="556" height="288" rx="28" fill="#fff8df" stroke="#143c56" stroke-width="8" filter="url(#soft-shadow)"/>
    <text x="362" y="580" text-anchor="middle" font-size="34" font-weight="900" font-family="Inter, Arial, sans-serif" fill="#143c56">Dinosaur Museum</text>
    <path d="M505 346 C536 310 600 314 630 354 C594 360 546 366 505 346 Z" fill="#5ac878" opacity="0.42"/>
    <g filter="url(#soft-shadow)"><ellipse cx="150" cy="230" rx="46.08" ry="26.88" fill="#4aa3ff" stroke="#143c56" stroke-width="7" stroke-linejoin="round" stroke-linecap="round"/><circle cx="222" cy="194" r="20.48" fill="#4aa3ff" stroke="#143c56" stroke-width="7" stroke-linejoin="round" stroke-linecap="round"/><path d="M74 230 L32 188" stroke="#143c56" stroke-width="7" stroke-linejoin="round" stroke-linecap="round"/><path d="M126 188 L146 154 L168 188" fill="#ffd45a" stroke="#143c56" stroke-width="7" stroke-linejoin="round" stroke-linecap="round"/></g>
    <path d="M324 214 C386 106 424 138 404 266 C398 260 348 252 324 214Z" fill="#5ac878" stroke="#143c56" stroke-width="7" stroke-linejoin="round" stroke-linecap="round" filter="url(#soft-shadow)"/>
    <g filter="url(#soft-shadow)"><path d="M540 209 C522 179 552 153 578 173 L592 251 C624 231 648 263 620 289 C590 315 560 287 584 257 L566 179 C548 201 522 233 540 209Z" fill="#ffd45a" stroke="#143c56" stroke-width="7" stroke-linejoin="round" stroke-linecap="round"/></g>
    <g filter="url(#soft-shadow)"><ellipse cx="190" cy="610" rx="56.24" ry="22" fill="#f45d5d" stroke="#143c56" stroke-width="7" stroke-linejoin="round" stroke-linecap="round"/><path d="M158 608 C164 508 216 508 222 608Z" fill="#a982ff" stroke="#143c56" stroke-width="7" stroke-linejoin="round" stroke-linecap="round"/></g>
    <g filter="url(#soft-shadow)"><path d="M514 516 V620" stroke="#143c56" stroke-width="7" stroke-linejoin="round" stroke-linecap="round"/><path d="M520 520 H600 L570 574 H520Z" fill="#ff9f45" stroke="#143c56" stroke-width="7" stroke-linejoin="round" stroke-linecap="round"/></g>
    <g filter="url(#soft-shadow)"><circle cx="362" cy="865" r="51.00000000000001" fill="#ffffff" stroke="#143c56" stroke-width="7" stroke-linejoin="round" stroke-linecap="round"/><path d="M362 865 V823 M362 865 L400 885" stroke="#143c56" stroke-width="7" stroke-linejoin="round" stroke-linecap="round"/><circle cx="362" cy="865" r="8" fill="#f45d5d"/></g>
  </g>
  <g transform="translate(724 0)">
    <rect width="724" height="1086" rx="0" fill="#f4ead7"/>
    <rect y="626" width="724" height="460" fill="#d9c8a5"/>
    <rect y="626" width="724" height="460" fill="url(#floor-lines-spot_dinosaur_museum_001)"/>
    <circle cx="582" cy="118" r="62" fill="#ff9f45" opacity="0.7"/>
    <rect x="48" y="86" width="216" height="190" rx="24" fill="#ffffff" stroke="#143c56" stroke-width="8" opacity="0.95"/>
    <rect x="70" y="110" width="172" height="136" rx="14" fill="#c5f2ff"/>
    <path d="M76 226 C120 178 164 190 210 142 C228 128 240 126 244 130 L244 246 L76 246 Z" fill="#ffffff" opacity="0.46"/>
    <rect x="72" y="438" width="580" height="58" rx="29" fill="#ffffff" stroke="#143c56" stroke-width="8" opacity="0.86"/>
    <rect x="84" y="500" width="556" height="288" rx="28" fill="#fff8df" stroke="#143c56" stroke-width="8" filter="url(#soft-shadow)"/>
    <text x="362" y="580" text-anchor="middle" font-size="34" font-weight="900" font-family="Inter, Arial, sans-serif" fill="#143c56">Dinosaur Museum</text>
    <path d="M505 346 C536 310 600 314 630 354 C594 360 546 366 505 346 Z" fill="#5ac878" opacity="0.42"/>
    <g filter="url(#soft-shadow)"><ellipse cx="150" cy="230" rx="46.08" ry="26.88" fill="#a982ff" stroke="#143c56" stroke-width="7" stroke-linejoin="round" stroke-linecap="round"/><circle cx="222" cy="194" r="20.48" fill="#a982ff" stroke="#143c56" stroke-width="7" stroke-linejoin="round" stroke-linecap="round"/><path d="M74 230 L32 188" stroke="#143c56" stroke-width="7" stroke-linejoin="round" stroke-linecap="round"/><path d="M126 188 L146 154 L168 188" fill="#f45d5d" stroke="#143c56" stroke-width="7" stroke-linejoin="round" stroke-linecap="round"/></g>
    <path d="M324 214 C386 106 424 138 404 266 C398 260 348 252 324 214Z" fill="#ff9f45" stroke="#143c56" stroke-width="7" stroke-linejoin="round" stroke-linecap="round" filter="url(#soft-shadow)"/>
    <g filter="url(#soft-shadow)"><path d="M540 209 C522 179 552 153 578 173 L592 251 C624 231 648 263 620 289 C590 315 560 287 584 257 L566 179 C548 201 522 233 540 209Z" fill="#f45d5d" stroke="#143c56" stroke-width="7" stroke-linejoin="round" stroke-linecap="round"/></g>
    <g filter="url(#soft-shadow)"><ellipse cx="190" cy="610" rx="56.24" ry="22" fill="#ffd45a" stroke="#143c56" stroke-width="7" stroke-linejoin="round" stroke-linecap="round"/><path d="M158 608 C164 508 216 508 222 608Z" fill="#4aa3ff" stroke="#143c56" stroke-width="7" stroke-linejoin="round" stroke-linecap="round"/></g>
    <g filter="url(#soft-shadow)"><path d="M514 516 V620" stroke="#143c56" stroke-width="7" stroke-linejoin="round" stroke-linecap="round"/><path d="M520 520 H600 L570 574 H520Z" fill="#5ac878" stroke="#143c56" stroke-width="7" stroke-linejoin="round" stroke-linecap="round"/></g>
    <g filter="url(#soft-shadow)"><circle cx="362" cy="865" r="51.00000000000001" fill="#ffffff" stroke="#143c56" stroke-width="7" stroke-linejoin="round" stroke-linecap="round"/><path d="M362 865 V823 M362 865 L400 885" stroke="#143c56" stroke-width="7" stroke-linejoin="round" stroke-linecap="round"/><circle cx="362" cy="865" r="8" fill="#ffd45a"/></g>
  </g>
  <rect x="721" y="0" width="6" height="1086" fill="#143c56" opacity="0.82"/>
</svg>
