<svg xmlns="http://www.w3.org/2000/svg" width="1448" height="1086" viewBox="0 0 1448 1086" role="img" aria-label="Classroom Art spot the difference">
  <defs>
    <filter id="soft-shadow" x="-20%" y="-20%" width="140%" height="140%">
      <feDropShadow dx="0" dy="8" stdDeviation="5" flood-color="#143c56" flood-opacity="0.16"/>
    </filter>
    <pattern id="floor-lines-spot_classroom_art_001" width="52" height="52" patternUnits="userSpaceOnUse" patternTransform="rotate(45)">
      <path d="M 0 0 L 0 52" stroke="#143c56" stroke-opacity="0.08" stroke-width="4"/>
    </pattern>
  </defs>
  <g transform="translate(0 0)">
    <rect width="724" height="1086" rx="0" fill="#eaf7ff"/>
    <rect y="626" width="724" height="460" fill="#ffefbe"/>
    <rect y="626" width="724" height="460" fill="url(#floor-lines-spot_classroom_art_001)"/>
    <circle cx="582" cy="118" r="62" fill="#ffd45a" opacity="0.7"/>
    <rect x="48" y="86" width="216" height="190" rx="24" fill="#ffffff" stroke="#143c56" stroke-width="8" opacity="0.95"/>
    <rect x="70" y="110" width="172" height="136" rx="14" fill="#bde6ff"/>
    <path d="M76 226 C120 178 164 190 210 142 C228 128 240 126 244 130 L244 246 L76 246 Z" fill="#ffffff" opacity="0.46"/>
    <rect x="72" y="438" width="580" height="58" rx="29" fill="#ffffff" stroke="#143c56" stroke-width="8" opacity="0.86"/>
    <rect x="84" y="500" width="556" height="288" rx="28" fill="#fff8df" stroke="#143c56" stroke-width="8" filter="url(#soft-shadow)"/>
    <text x="362" y="580" text-anchor="middle" font-size="34" font-weight="900" font-family="Inter, Arial, sans-serif" fill="#143c56">Classroom Art</text>
    <path d="M505 346 C536 310 600 314 630 354 C594 360 546 366 505 346 Z" fill="#5ac878" opacity="0.42"/>
    <g filter="url(#soft-shadow)"><path d="M126 258 L196 192 L162 158 L94 224Z" fill="#f45d5d" stroke="#143c56" stroke-width="7" stroke-linejoin="round" stroke-linecap="round"/><path d="M162 158 L206 148 L196 192Z" fill="#5ac878" stroke="#143c56" stroke-width="7" stroke-linejoin="round" stroke-linecap="round"/></g>
    <g filter="url(#soft-shadow)"><rect x="310" y="142" width="108" height="104" rx="14" fill="#4aa3ff" stroke="#143c56" stroke-width="7" stroke-linejoin="round" stroke-linecap="round"/><path d="M364 146 V242" stroke="#ffffff" stroke-width="8"/><path d="M332 182 H346" stroke="#ffd45a" stroke-width="9"/><path d="M382 214 H396" stroke="#ffd45a" stroke-width="9"/></g>
    <path d="M575,169.6 L587.9900540756637,201.12072442431366 L621.9821919049806,203.7345604778776 L596.0183490101228,225.82927557568632 L604.0365914632482,258.9654395221224 L575,241.1 L545.9634085367518,258.9654395221224 L553.9816509898772,225.82927557568635 L528.0178080950194,203.7345604778776 L562.0099459243363,201.12072442431366 Z" fill="#5ac878" stroke="#143c56" stroke-width="7" stroke-linejoin="round" stroke-linecap="round" filter="url(#soft-shadow)"/>
    <g filter="url(#soft-shadow)"><circle cx="190" cy="574" r="45.88" fill="#ffd45a" stroke="#143c56" stroke-width="7" stroke-linejoin="round" stroke-linecap="round"/><path d="M194 512 C212 484 248 494 242 526 C218 532 202 526 194 512Z" fill="#5ac878" stroke="#143c56" stroke-width="7" stroke-linejoin="round" stroke-linecap="round"/><path d="M190 522 C198 500 184 488 166 478" fill="none" stroke="#143c56" stroke-width="7" stroke-linejoin="round" stroke-linecap="round"/></g>
    <g filter="url(#soft-shadow)"><rect x="504" y="518" width="80" height="110" rx="22" fill="#a982ff" stroke="#143c56" stroke-width="7" stroke-linejoin="round" stroke-linecap="round"/><path d="M512 522 C516 484 572 484 576 522" fill="none" stroke="#143c56" stroke-width="7" stroke-linejoin="round" stroke-linecap="round"/><rect x="516" y="578" width="56" height="38" rx="10" fill="#f45d5d" stroke="#143c56" stroke-width="7" stroke-linejoin="round" stroke-linecap="round"/></g>
    <g filter="url(#soft-shadow)"><rect x="350" y="818" width="24" height="102" rx="10" fill="#ff9f45" stroke="#143c56" stroke-width="7" stroke-linejoin="round" stroke-linecap="round" transform="rotate(28 362 865)"/><path d="M374 808 C424 786 440 834 392 848Z" fill="#4aa3ff" stroke="#143c56" stroke-width="7" stroke-linejoin="round" stroke-linecap="round"/></g>
  </g>
  <g transform="translate(724 0)">
    <rect width="724" height="1086" rx="0" fill="#eaf7ff"/>
    <rect y="626" width="724" height="460" fill="#ffefbe"/>
    <rect y="626" width="724" height="460" fill="url(#floor-lines-spot_classroom_art_001)"/>
    <circle cx="582" cy="118" r="62" fill="#ffd45a" opacity="0.7"/>
    <rect x="48" y="86" width="216" height="190" rx="24" fill="#ffffff" stroke="#143c56" stroke-width="8" opacity="0.95"/>
    <rect x="70" y="110" width="172" height="136" rx="14" fill="#bde6ff"/>
    <path d="M76 226 C120 178 164 190 210 142 C228 128 240 126 244 130 L244 246 L76 246 Z" fill="#ffffff" opacity="0.46"/>
    <rect x="72" y="438" width="580" height="58" rx="29" fill="#ffffff" stroke="#143c56" stroke-width="8" opacity="0.86"/>
    <rect x="84" y="500" width="556" height="288" rx="28" fill="#fff8df" stroke="#143c56" stroke-width="8" filter="url(#soft-shadow)"/>
    <text x="362" y="580" text-anchor="middle" font-size="34" font-weight="900" font-family="Inter, Arial, sans-serif" fill="#143c56">Classroom Art</text>
    <path d="M505 346 C536 310 600 314 630 354 C594 360 546 366 505 346 Z" fill="#5ac878" opacity="0.42"/>
    <g filter="url(#soft-shadow)"><path d="M126 258 L196 192 L162 158 L94 224Z" fill="#ffd45a" stroke="#143c56" stroke-width="7" stroke-linejoin="round" stroke-linecap="round"/><path d="M162 158 L206 148 L196 192Z" fill="#ff9f45" stroke="#143c56" stroke-width="7" stroke-linejoin="round" stroke-linecap="round"/></g>
    <g filter="url(#soft-shadow)"><rect x="310" y="142" width="108" height="104" rx="14" fill="#a982ff" stroke="#143c56" stroke-width="7" stroke-linejoin="round" stroke-linecap="round"/><path d="M364 146 V242" stroke="#ffffff" stroke-width="8"/><path d="M332 182 H346" stroke="#f45d5d" stroke-width="9"/><path d="M382 214 H396" stroke="#f45d5d" stroke-width="9"/></g>
    <path d="M575,169.6 L587.9900540756637,201.12072442431366 L621.9821919049806,203.7345604778776 L596.0183490101228,225.82927557568632 L604.0365914632482,258.9654395221224 L575,241.1 L545.9634085367518,258.9654395221224 L553.9816509898772,225.82927557568635 L528.0178080950194,203.7345604778776 L562.0099459243363,201.12072442431366 Z" fill="#ff9f45" stroke="#143c56" stroke-width="7" stroke-linejoin="round" stroke-linecap="round" filter="url(#soft-shadow)"/>
    <g filter="url(#soft-shadow)"><circle cx="190" cy="574" r="45.88" fill="#f45d5d" stroke="#143c56" stroke-width="7" stroke-linejoin="round" stroke-linecap="round"/><path d="M194 512 C212 484 248 494 242 526 C218 532 202 526 194 512Z" fill="#5ac878" stroke="#143c56" stroke-width="7" stroke-linejoin="round" stroke-linecap="round"/><path d="M190 522 C198 500 184 488 166 478" fill="none" stroke="#143c56" stroke-width="7" stroke-linejoin="round" stroke-linecap="round"/></g>
    <g filter="url(#soft-shadow)"><rect x="504" y="518" width="80" height="110" rx="22" fill="#4aa3ff" stroke="#143c56" stroke-width="7" stroke-linejoin="round" stroke-linecap="round"/><path d="M512 522 C516 484 572 484 576 522" fill="none" stroke="#143c56" stroke-width="7" stroke-linejoin="round" stroke-linecap="round"/><rect x="516" y="578" width="56" height="38" rx="10" fill="#ffd45a" stroke="#143c56" stroke-width="7" stroke-linejoin="round" stroke-linecap="round"/></g>
    <g filter="url(#soft-shadow)"><rect x="350" y="818" width="24" height="102" rx="10" fill="#5ac878" stroke="#143c56" stroke-width="7" stroke-linejoin="round" stroke-linecap="round" transform="rotate(28 362 865)"/><path d="M374 808 C424 786 440 834 392 848Z" fill="#a982ff" stroke="#143c56" stroke-width="7" stroke-linejoin="round" stroke-linecap="round"/></g>
  </g>
  <rect x="721" y="0" width="6" height="1086" fill="#143c56" opacity="0.82"/>
</svg>
