<svg xmlns="http://www.w3.org/2000/svg" width="1448" height="1086" viewBox="0 0 1448 1086" role="img" aria-label="Rainy Window spot the difference">
  <defs>
    <filter id="soft-shadow" x="-20%" y="-20%" width="140%" height="140%">
      <feDropShadow dx="0" dy="8" stdDeviation="5" flood-color="#143c56" flood-opacity="0.16"/>
    </filter>
    <pattern id="floor-lines-spot_rainy_window_001" width="52" height="52" patternUnits="userSpaceOnUse" patternTransform="rotate(45)">
      <path d="M 0 0 L 0 52" stroke="#143c56" stroke-opacity="0.08" stroke-width="4"/>
    </pattern>
  </defs>
  <g transform="translate(0 0)">
    <rect width="724" height="1086" rx="0" fill="#dbe8ef"/>
    <rect y="626" width="724" height="460" fill="#d8e2df"/>
    <rect y="626" width="724" height="460" fill="url(#floor-lines-spot_rainy_window_001)"/>
    <circle cx="582" cy="118" r="62" fill="#bde6ff" opacity="0.7"/>
    <rect x="48" y="86" width="216" height="190" rx="24" fill="#ffffff" stroke="#143c56" stroke-width="8" opacity="0.95"/>
    <rect x="70" y="110" width="172" height="136" rx="14" fill="#c5f2ff"/>
    <path d="M76 226 C120 178 164 190 210 142 C228 128 240 126 244 130 L244 246 L76 246 Z" fill="#ffffff" opacity="0.46"/>
    <rect x="72" y="438" width="580" height="58" rx="29" fill="#ffffff" stroke="#143c56" stroke-width="8" opacity="0.86"/>
    <rect x="84" y="500" width="556" height="288" rx="28" fill="#fff8df" stroke="#143c56" stroke-width="8" filter="url(#soft-shadow)"/>
    <text x="362" y="580" text-anchor="middle" font-size="34" font-weight="900" font-family="Inter, Arial, sans-serif" fill="#143c56">Rainy Window</text>
    <path d="M525 315 l-16 38" stroke="#4aa3ff" stroke-width="8" stroke-linecap="round"/><path d="M574 320 l-16 38" stroke="#4aa3ff" stroke-width="8" stroke-linecap="round"/>
    <g filter="url(#soft-shadow)"><path d="M104 212 C146 158 166 158 208 212Z" fill="#5ac878" stroke="#143c56" stroke-width="7" stroke-linejoin="round" stroke-linecap="round"/><path d="M156 212 V264 C156 300 204 286 190 262" fill="none" stroke="#143c56" stroke-width="7" stroke-linejoin="round" stroke-linecap="round"/><path d="M156 166 V212" stroke="#a982ff" stroke-width="10"/></g>
    <path d="M336 146 H390 V216 H408 C442 216 438 236 404 236 H334 Z" fill="#ffd45a" stroke="#143c56" stroke-width="7" stroke-linejoin="round" stroke-linecap="round" filter="url(#soft-shadow)"/>
    <path d="M538 245 C520 199 568 169 598 195 C620 149 686 171 682 223 C720 227 712 277 668 275 H554 C528 275 518 257 538 245Z" fill="#a982ff" stroke="#143c56" stroke-width="7" stroke-linejoin="round" stroke-linecap="round" filter="url(#soft-shadow)"/>
    <g filter="url(#soft-shadow)"><rect x="128" y="506" width="124" height="120" rx="14" fill="#ff9f45" stroke="#143c56" stroke-width="7" stroke-linejoin="round" stroke-linecap="round"/><path d="M190 510 V622" stroke="#ffffff" stroke-width="8"/><path d="M150 546 H172" stroke="#4aa3ff" stroke-width="9"/><path d="M208 578 H230" stroke="#4aa3ff" stroke-width="9"/></g>
    <g filter="url(#soft-shadow)"><path d="M504 534 H570 V612 H524Z" fill="#f45d5d" stroke="#143c56" stroke-width="7" stroke-linejoin="round" stroke-linecap="round"/><path d="M570 558 C636 554 632 620 570 616" fill="none" stroke="#143c56" stroke-width="7" stroke-linejoin="round" stroke-linecap="round"/></g>
    <path d="M329 810 H383 V886 H419 C445 886 441 922 405 922 H329Z" fill="#4aa3ff" stroke="#143c56" stroke-width="7" stroke-linejoin="round" stroke-linecap="round" filter="url(#soft-shadow)"/>
  </g>
  <g transform="translate(724 0)">
    <rect width="724" height="1086" rx="0" fill="#dbe8ef"/>
    <rect y="626" width="724" height="460" fill="#d8e2df"/>
    <rect y="626" width="724" height="460" fill="url(#floor-lines-spot_rainy_window_001)"/>
    <circle cx="582" cy="118" r="62" fill="#bde6ff" opacity="0.7"/>
    <rect x="48" y="86" width="216" height="190" rx="24" fill="#ffffff" stroke="#143c56" stroke-width="8" opacity="0.95"/>
    <rect x="70" y="110" width="172" height="136" rx="14" fill="#c5f2ff"/>
    <path d="M76 226 C120 178 164 190 210 142 C228 128 240 126 244 130 L244 246 L76 246 Z" fill="#ffffff" opacity="0.46"/>
    <rect x="72" y="438" width="580" height="58" rx="29" fill="#ffffff" stroke="#143c56" stroke-width="8" opacity="0.86"/>
    <rect x="84" y="500" width="556" height="288" rx="28" fill="#fff8df" stroke="#143c56" stroke-width="8" filter="url(#soft-shadow)"/>
    <text x="362" y="580" text-anchor="middle" font-size="34" font-weight="900" font-family="Inter, Arial, sans-serif" fill="#143c56">Rainy Window</text>
    <path d="M525 315 l-16 38" stroke="#4aa3ff" stroke-width="8" stroke-linecap="round"/><path d="M574 320 l-16 38" stroke="#4aa3ff" stroke-width="8" stroke-linecap="round"/>
    <g filter="url(#soft-shadow)"><path d="M104 212 C146 158 166 158 208 212Z" fill="#ff9f45" stroke="#143c56" stroke-width="7" stroke-linejoin="round" stroke-linecap="round"/><path d="M156 212 V264 C156 300 204 286 190 262" fill="none" stroke="#143c56" stroke-width="7" stroke-linejoin="round" stroke-linecap="round"/><path d="M156 166 V212" stroke="#4aa3ff" stroke-width="10"/></g>
    <path d="M336 146 H390 V216 H408 C442 216 438 236 404 236 H334 Z" fill="#f45d5d" stroke="#143c56" stroke-width="7" stroke-linejoin="round" stroke-linecap="round" filter="url(#soft-shadow)"/>
    <path d="M538 245 C520 199 568 169 598 195 C620 149 686 171 682 223 C720 227 712 277 668 275 H554 C528 275 518 257 538 245Z" fill="#4aa3ff" stroke="#143c56" stroke-width="7" stroke-linejoin="round" stroke-linecap="round" filter="url(#soft-shadow)"/>
    <g filter="url(#soft-shadow)"><rect x="128" y="506" width="124" height="120" rx="14" fill="#5ac878" stroke="#143c56" stroke-width="7" stroke-linejoin="round" stroke-linecap="round"/><path d="M190 510 V622" stroke="#ffffff" stroke-width="8"/><path d="M150 546 H172" stroke="#a982ff" stroke-width="9"/><path d="M208 578 H230" stroke="#a982ff" stroke-width="9"/></g>
    <g filter="url(#soft-shadow)"><path d="M504 534 H570 V612 H524Z" fill="#ffd45a" stroke="#143c56" stroke-width="7" stroke-linejoin="round" stroke-linecap="round"/><path d="M570 558 C636 554 632 620 570 616" fill="none" stroke="#143c56" stroke-width="7" stroke-linejoin="round" stroke-linecap="round"/></g>
    <path d="M329 810 H383 V886 H419 C445 886 441 922 405 922 H329Z" fill="#a982ff" stroke="#143c56" stroke-width="7" stroke-linejoin="round" stroke-linecap="round" filter="url(#soft-shadow)"/>
  </g>
  <rect x="721" y="0" width="6" height="1086" fill="#143c56" opacity="0.82"/>
</svg>
